<?xml version="1.0" encoding="UTF-8" standalone="no"?><!DOCTYPE svg PUBLIC "-//W3C//DTD SVG 1.1//EN" "http://www.w3.org/Graphics/SVG/1.1/DTD/svg11.dtd">
<svg width="100%" height="100%" viewBox="0 0 7451 14698" version="1.1"
    xmlns="http://www.w3.org/2000/svg"
    xmlns:xlink="http://www.w3.org/1999/xlink" xml:space="preserve"
    xmlns:serif="http://www.serif.com/" style="fill-rule:evenodd;clip-rule:evenodd;stroke-linecap:round;stroke-linejoin:round;stroke-miterlimit:1.5;">
    <g id="bot">
        <g id="body">
            <g>
                <circle cx="4660.5" cy="13848.8" r="844.708" style="fill:#3f3d56;stroke:#3f3d56;stroke-width:7.92px;"/>
                <circle cx="2790.21" cy="13848.8" r="844.708" style="fill:#3f3d56;stroke:#3f3d56;stroke-width:7.92px;"/>
            </g>
            <g>
                <path d="M6330.9,9237.4c0,-709.53 -576.048,-1285.58 -1285.58,-1285.58l-2571.16,0c-709.53,0 -1285.58,576.048 -1285.58,1285.58l-0,3313.38c-0,709.529 576.048,1285.58 1285.58,1285.58l2571.16,-0c709.53,-0 1285.58,-576.049 1285.58,-1285.58l0,-3313.38Z" style="fill:none;stroke:#3f3d56;stroke-width:8.33px;"/>
                <path d="M6330.9,9237.4c0,-709.53 -576.048,-1285.58 -1285.58,-1285.58l-2571.16,0c-709.53,0 -1285.58,576.048 -1285.58,1285.58l-0,3313.38c-0,709.529 576.048,1285.58 1285.58,1285.58l2571.16,-0c709.53,-0 1285.58,-576.049 1285.58,-1285.58l0,-3313.38Z" style="fill:#e6e6e6;"/>
                <path d="M1189.28,10132.8l-0,2417.85c-0,709.53 576.048,1285.58 1285.58,1285.58l2415.62,-0l-3701.19,-3703.43Z" style="fill:#ccc;"/>
            </g>
            <g>
                <path d="M5710.4,9272.52c-61.276,-43.654 -134.611,-67.243 -209.846,-67.497l-1375.53,-0c-198.195,-0 -361.284,163.089 -361.284,361.283c0,198.195 163.089,361.284 361.284,361.284l1375.53,-0c24.551,0.069 49.044,-2.392 73.09,-7.345c23.946,-5.171 47.362,-12.547 69.948,-22.035c132.193,-56.952 218.248,-187.728 218.248,-331.667c-0,-116.623 -56.493,-226.302 -151.441,-294.02l0.001,-0.003Z" style="fill:#3f3d56;fill-rule:nonzero;"/>
                <circle cx="4216.61" cy="9566.29" r="183.42" style="fill:#f1f1f1;"/>
                <circle cx="4812.72" cy="9566.29" r="183.42" style="fill:#f1f1f1;"/>
                <circle cx="5408.84" cy="9566.29" r="183.42" style="fill:#eb2f96;"/>
            </g>
        </g>
        <g id="head">
            <path d="M6499.84,3381.97c-26.231,-3.846 -52.803,-6.296 -79.393,-8.043c301.95,695.841 322.899,1482.3 58.422,2193.23c26.572,-3.146 52.803,-7.343 79.033,-12.24c516.039,-99.98 892.199,-556.013 892.199,-1081.65c-0,-547.442 -408.019,-1016.02 -950.261,-1091.3Z" style="fill:#3f3d56;fill-rule:nonzero;"/>
            <path d="M1030.25,3373.93c-26.59,1.748 -53.162,4.197 -79.393,8.043c-542.235,75.286 -950.245,543.86 -950.245,1091.3c-0,525.63 376.151,981.661 892.183,1081.65c26.23,4.897 52.461,9.094 79.033,12.24c-264.455,-710.933 -243.506,-1497.38 58.422,-2193.23Z" style="fill:#3f3d56;fill-rule:nonzero;"/>
            <circle cx="3725.71" cy="4543.35" r="3007.43" style="fill:#e6e6e6;stroke:#3f3d56;stroke-width:8.33px;"/>
            <g>
                <path d="M5264.57,3858.5l-3077.72,-0c-335.76,-0 -612.048,276.288 -612.048,612.047c0,335.76 276.288,612.048 612.048,612.048l3077.72,-0c335.759,-0 612.047,-276.288 612.047,-612.048c0,-335.759 -276.288,-612.047 -612.047,-612.047Z" style="fill:#3f3d56;fill-rule:nonzero;"/>
                <g id="eyes">
                    <path d="M3332.14,4363.39c-0,-59.142 -48.016,-107.157 -107.157,-107.157l-895.211,-0c-59.142,-0 -107.157,48.015 -107.157,107.157l-0,214.313c-0,59.142 48.015,107.157 107.157,107.157l895.211,0c59.141,0 107.157,-48.015 107.157,-107.157l-0,-214.313Z" style="fill:#ebebeb;"/>
                    <path d="M5228.8,4363.39c0,-59.142 -48.015,-107.157 -107.157,-107.157l-895.21,-0c-59.142,-0 -107.157,48.015 -107.157,107.157l-0,214.313c-0,59.142 48.015,107.157 107.157,107.157l895.21,0c59.142,0 107.157,-48.015 107.157,-107.157l0,-214.313Z" style="fill:#ebebeb;"/>
                </g>
            </g>
            <path d="M4996.81,5779.9c4.49,-17.811 7.348,-35.853 9.387,-53.907c-812.501,205.096 -1730.83,219.408 -2560.99,39.913c3.676,18.042 8.578,35.852 14.298,53.661c116.778,350.369 649.304,605.722 1263.08,605.663c639.238,-0.062 1186.36,-277.151 1274.22,-645.33Z" style="fill:#3f3d56;fill-rule:nonzero;"/>
            <rect x="3621.33" y="521.316" width="208.745" height="1014.61" style="fill:#e6e6e6;stroke:#3f3d56;stroke-width:7.92px;"/>
            <circle cx="3725.71" cy="398.214" r="397.324" style="fill:#3d3f56;">
                <animate attributeName="fill" values="#eb2f96;#3f3d56;#eb2f96" dur="5s" repeatCount="indefinite" />
            </circle>
        </g>
    </g>
</svg>
