<svg viewBox="0 -9 320 320" xmlns="http://www.w3.org/2000/svg" fill-rule="evenodd" clip-rule="evenodd" stroke-linejoin="round" stroke-miterlimit="1.4"><path fill="none" d="M.1.5h322.7v303.7H.1z"/><path d="M157.3 22.8a172 172 0 00-30.1 1.8l-1.7 21.5c-9.4 1.9-18.5 4.7-27 8.4l-18-15.3c-8.8 4.2-16.9 9.3-24.4 15L67 74a112 112 0 00-18 19.6l-24-5.7c-4.9 7.6-8.9 15.7-11.9 24.1l20.2 13a99 99 0 00-4 25.4L6 155.9c.2 9 1.4 18 3.6 26.8l24.4 2.6c2.6 8.4 6.2 16.6 10.8 24.4L28.4 225c5.3 8 11.4 15.4 18.2 22.3l22-8.5c6.9 6.4 14.6 12 23 17l-5.3 20.9a174 174 0 0027.9 11.8l13.6-17.3c9.5 2.5 19.2 4.2 29 5l7.3 20.8a172 172 0 0030.1-1.9l1.7-21.4c9.4-1.9 18.5-4.7 27.1-8.4l18 15.3c8.7-4.2 16.8-9.3 24.3-15l-10.7-19.9a112 112 0 0018-19.5l23.8 5.7c5-7.6 8.9-15.7 12-24.1l-20.3-13c2.4-8.2 3.8-16.8 4.1-25.4l23.3-5.5c-.3-9-1.5-18-3.7-26.8l-24.3-2.6c-2.6-8.4-6.3-16.6-10.9-24.4L293 94.7c-5.2-7.9-11.3-15.3-18.2-22.2L253 81c-7-6.4-14.7-12.1-23-17l5.3-20.9a174 174 0 00-28-11.8l-13.6 17.3c-9.4-2.6-19.1-4.2-28.9-5l-7.4-20.8zm-8.4 50c54-3.3 103 33 109.6 81 6.5 48-32 89.7-86 93-54 3.4-103-32.9-109.6-81-6.5-48 32-89.7 86-93z" fill="#ffc800"/><path d="M236.5 42.3c.2.3.3.8.2 1.2l-5 19.7 1.4.8a143 143 0 0120 14.8l.2.2 21-8.1c1.2-.4 1.7.4 1.7.4a154 154 0 0118.2 22.1l.4.6s.5 1-.4 2L279 110.3l.5 1c3.8 6.8 7 14 9.5 21.4l23 2.3c1.6.3 1.6 1.4 1.6 1.4 2.2 8.8 3.5 17.8 3.8 26.8v.8s-.5 1.2-1.5 1.6l-21.8 5.1v1c-.5 7.4-1.7 14.7-3.6 21.9l19 12.3c1 .8 1 1 .7 2.3l-1.5 4a128 128 0 01-10.3 20.2l-.4.7s-1 .8-2 .6l-22.5-5.3a115.4 115.4 0 01-16.2 17.6l10 18.4s.7 1.5-.7 2.7a150.5 150.5 0 01-24.2 15.1l-.7.3s-1.3.2-2.1-.4l-17-14.4c-7.9 3.3-16.1 5.8-24.5 7.7l-1.5 19.7c-.3 1.7-.6 1.8-2 2.1-10 1.5-20 2.2-30 2h-1c-1.4-.5-1.4-.9-1.7-1.6l-7-19.4a168.8 168.8 0 01-26-4.4h-.2l-12.6 16c-1.4 1.5-2.7.8-2.7.8-9.6-3.1-19-7-27.9-11.7l-.7-.5s-1.2-1.2-1-2.6l4.8-19A144 144 0 0168 242l-8.6 3-12 4.8s-1.7.2-2.7-.6c-6.8-6.9-13-14.3-18.3-22.3l-.5-.8c-.6-1.6-.5-1.8.6-3l14.9-13.8-.7-1.1c-3.5-6.4-6.5-13-8.8-20v-.4l-22.7-2.3c-1.7-.3-1.8-.5-2.3-2-2.2-9-3.5-18-3.8-27v-1s.2-1.6 2.1-2.2l21.2-5a106 106 0 013.6-22l-5.8-3.7-12.7-8.1s-1.6-1.6-1.1-3.3l1.5-4a124.5 124.5 0 0110.4-20.4l.5-.7s1.4-1 2.8-.9l20.5 5 1.5.3a107.4 107.4 0 0115.5-16.7l.3-.3-9.7-18s-.9-1.8.8-3.3l1.8-1.4c7-5 14.4-9.5 22.1-13.3l2-.6c.5 0 1 .2 1.5.5l17 14.6c8-3.3 16.1-5.7 24.5-7.4h.3l1.5-20s.3-1.3 1.7-1.6c0 0 5.2-.7 9.5-1 6.6-.6 13.3-.8 20-.6 1.5 0 1.8 0 2.2 1l1.7 4.6 5.5 15.4c9.1.7 18.3 2.3 27.3 4.6l13-16.5 1.6-.5c9.6 3 18.9 7 27.8 11.6l.6.4.4.4zM273 224l22.4 5.4.7-1.3c3.8-6.2 7-12.8 9.7-19.7l-18.8-12s-1.3-.4-.5-3.4c2.2-7.7 3.5-15.7 3.8-23.8 0 0 0-1.3 1.5-1.8l21.7-5c-.3-8-1.4-16-3.2-23.7l-23-2.5c-1.2-.2-1.6-1.5-2-2.4-2.5-8-6-15.7-10.2-23 0 0-.7-1 .3-2.1l15.4-14.2-.7-1c-4.6-6.7-9.8-13-15.5-18.9l-.2-.2-20.9 8.1s-1.4 0-2.7-1.2c-6.7-6-14-11.3-21.7-16 0 0-1-.5-.7-1.7l5-19.7c-8.3-4.3-16.8-7.9-25.6-10.8l-13 16.5c-1 1.1-4.1-.2-6.8-.9a150 150 0 00-23.4-3.6s-.8 0-1.2-1l-5.6-15.8-1.5-4.1c-9 0-18 .6-27 1.9h-.4l-1.4 20.1s-.6 1.6-2.9 2.1c-8.6 2-17.1 4.7-25.3 8.3l-2.4-.3L80 42c-7.2 3.8-14 8-20.5 13l9.7 17.9s.6 2.2-2.4 5A112.3 112.3 0 0051 95.1s-1.4 1.3-3 1l-21.2-5-.6-.1c-3.8 6.2-7 12.8-9.7 19.6v.2l12.5 8 5.7 3.7c2.4 1.8 1.2 3.2.6 5.4-2 7.4-3.1 14.9-3.4 22.5 0 0-.1 2-2.1 2.6l-21.1 5a126.4 126.4 0 003 21.9l22.4 2.6s2 .9 3 4.2a121 121 0 0010 21.6s.9 1.7-.6 3.3L32 225.3a149 149 0 0015.3 18.8l12.1-4.6 8.3-3.2c2.1-.6 4.6 2.3 7 4.3 5.6 4.8 11.8 9.1 18.2 13 0 0 1.5.8 1.2 2.7l-4.8 19c7.8 4 15.7 7.3 24 10.1l12.7-15.9s.4-1.4 3.9-.4c8.8 2.3 18 3.8 27.1 4.5 0 0 1.4 0 2 1.6l7 19.4a180.3 180.3 0 0026-1.6l1.5-19.6s-.3-1.6 3.1-2.3c8.7-1.9 17.2-4.5 25.4-8 0 0 1.1-.5 2.4.4l16.9 14.4c7.4-3.8 14.5-8 21.1-13l-9.8-18.2c-.8-1.8 0-2.2 1.4-3.5 6.3-5.5 12-11.6 16.8-18.3 0 0 .7-1 2.2-.8zM148.7 74.2a94.9 94.9 0 00-70.5 37.2 79.4 79.4 0 003.3 93.3c2.7 3.6 5.8 7 9 10.2 32.8 32 87 39.5 126.2 16.3a80.6 80.6 0 0038.7-53.8c6.7-37.6-20.5-76.2-53.8-92.2a114.4 114.4 0 00-52.3-11h-.6zm.6-2.8c32.1-2.7 66 8.8 89 34 21.1 23 29.9 58 18.1 87.7-12.6 32-46.3 53.4-82.1 56-47.6 3.5-98.5-24.4-111.2-72.8-8.4-32 5-67.8 33.6-87.5a102.7 102.7 0 0152.1-17.4h.5z" fill-rule="nonzero"/><path d="M159.9 46.1c55.8.2 102 45 103.2 99.9 1.2 55-39.2 99.4-99 99.3-48 0-103.5-36.8-101.7-101.2C64 89 104 46 160 46z" fill="none"/><clipPath id="a"><path d="M159.9 46.1c55.8.2 102 45 103.2 99.9 1.2 55-39.2 99.4-99 99.3-48 0-103.5-36.8-101.7-101.2C64 89 104 46 160 46z"/></clipPath><g clip-path="url(#a)"><path d="M191 259.2c20-20 36.4-47.8 46.1-78.5 9.1-29 11.7-58.6 7.3-84.2l-139.5-18A204.4 204.4 0 0073.6 140c-11.6 37.1-12.5 75-2.1 103.8L191 259.2z" fill="#c2c2c2"/><path d="M105.3 75.6l7.5 1 85.9 10.8 46.1 5.8s2.4.8 3 2.8l1.3 10c3 28.3-1.6 57-11.6 84.4a183.8 183.8 0 01-45.3 70l-1.2-1.2 1.2 1.3s-.7.5-1.5.4l-2.4-.3L71.2 246l-1.8-1.5C56.8 210 60.6 170.8 72 136a206.4 206.4 0 0130.8-59.5c.6-.5 1.4-.8 2.4-.8zm.7 6.3a202 202 0 00-38.8 103.2c-1.5 19-.2 38.4 6 56.6l53 7.1 62.6 8.3 1.5.3a191 191 0 0034.1-53c14.4-32.5 22.4-69.2 17-104.9l-44.6-5.8-83-11-7.6-1-.2.2z" fill-rule="nonzero"/><path d="M134.2 81.6s-1.3 14.7-16 31.8C82 156 76 134.5 76 134.5c-7.8 19-10.3 39.2-16 67.8 41.7 47.8 91.2 67.6 141.3 54.2 16.5-28 30.6-59 39.1-94.4-22.3-10.4-37.4-27-35.8-69.8-4.3-1-4-1-10.3-3l-2.8 34.5a413.8 413.8 0 00-51.7-6.5s4-32.2 7.3-34.3c3.3-2.2-12.8-1.4-12.8-1.4z" fill="#008fd7"/><clipPath id="b"><path d="M134.2 81.6s-1.3 14.7-16 31.8C82 156 76 134.5 76 134.5c-7.8 19-10.3 39.2-16 67.8 41.7 47.8 91.2 67.6 141.3 54.2 16.5-28 30.6-59 39.1-94.4-22.3-10.4-37.4-27-35.8-69.8-4.3-1-4-1-10.3-3l-2.8 34.5a413.8 413.8 0 00-51.7-6.5s4-32.2 7.3-34.3c3.3-2.2-12.8-1.4-12.8-1.4z"/></clipPath><g clip-path="url(#b)"><path d="M128 116.6c26.9 1.4 52.3 4.7 76.5 9.8a264 264 0 01-16 69.4c-27.9-.6-54.8-3.8-81-9.2a340.2 340.2 0 0120.5-70z" fill="#008fd7"/><clipPath id="c"><path d="M128 116.6c26.9 1.4 52.3 4.7 76.5 9.8a264 264 0 01-16 69.4c-27.9-.6-54.8-3.8-81-9.2a340.2 340.2 0 0120.5-70z"/></clipPath><g clip-path="url(#c)"><text x="174.3" y="149" font-family="'TamilMN','Tamil MN',serif" font-weight="250" font-size="38.5" fill="#fff" stroke="#fff" stroke-width="2.7" transform="rotate(5.8 -50.9 -71.2) skewX(-7.3)">B<tspan x="199.9" y="149">F</tspan></text></g><path d="M129.3 115.4c25.3 1.4 50.6 4.6 75.5 9.7 0 0 1 .3 1 1.4a269.5 269.5 0 01-15.8 68.8s0 1.6-1.5 1.7a451 451 0 01-80.6-9s-1.7-.1-1.5-1.6a344.1 344.1 0 0120.2-69.8s.5-1.3 1.5-1.3h1.2zm-.6 2.6c-9 21.8-15.2 44.6-19.7 67.6 26 5.3 52 8.3 78.2 8.9h.5c8.2-21.5 13-44.2 15.4-67v-.1c-24.4-5-49-8-73.9-9.5 0 0-.3-.2-.5.1z" fill-rule="nonzero"/><path d="M137 125.2c1.4 0 2.6 1.3 2.6 2.8 0 1.5-1.2 2.8-2.7 2.8a2.8 2.8 0 01-2.7-2.8c0-1.6 1.3-2.8 2.7-2.8z" fill="#ffc800"/><path d="M137 124c3.6.1 5.5 6 1.4 7.7-3.6 1.5-7.9-5-3.2-7.3.6-.3 1-.5 1.9-.4zm0 2.5c-1.7 0-1.9 3.9.5 3l.4-.3c.9-.8.4-2.8-1-2.7z" fill-rule="nonzero"/><path d="M194.2 131c1.5 0 2.7 1.2 2.7 2.7 0 1.6-1.2 2.8-2.7 2.8a2.8 2.8 0 01-2.7-2.8c0-1.5 1.2-2.8 2.7-2.8z" fill="#ffc800"/><path d="M194.3 129.7c3.5.1 5.4 6.1 1.3 7.8-3.5 1.4-7.9-5-3.2-7.4.6-.3 1-.4 1.9-.4zm-.2 2.5c-1.5 0-1.8 4 .6 3 1.2-.6 1.1-3-.6-3z" fill-rule="nonzero"/></g><path d="M195.1 88.3c3.2 1 6.4 2 9.7 2.8 0 0 .9.4 1 1.2-.7 18 .8 36.3 11.7 50.8a61 61 0 0023.3 17.9s.8.6.7 1.4c-8 33.2-21.8 65.2-39.2 94.7 0 0-5.6 2-10.9 2.9-23.5 4.2-48.2.8-70-8.8a180.8 180.8 0 01-60.9-46.4c-2.9-3.2-1.4-4.7-1-6.7 4-21.2 6.8-43 14.9-63.1 0-.2 1.6-3.4 3-.3 2 4.7 9.1 4 13.7 1.7a95 95 0 0029.7-28.1c6-8 11-17 12.2-26.8 0 0-.1-1.1 2.2-1.2a150 150 0 0111 .2h.4c1.2.3 3.6 1.7 1.2 3.4-1.7 1.2-3.4 10.8-4.8 19.6l-2 12.5 12.3 1c12.2 1.2 24.5 2.8 36.6 5.1h.3l2.6-33s.5-1.4 2.2-.9zm-55.3-5.6h-4.5c-.3 2.5-1.7 7.4-3.7 12a104 104 0 01-24.4 32.4 50.4 50.4 0 01-19.5 13.4c-4 1.2-9 .7-11.6-3-8 20.6-10.6 42.8-14.8 64.4 24.4 27.9 55.5 50.7 92.4 56.2 15.5 2.3 31.5 1.3 46.6-2.7 17.1-29 30.6-60.2 38.5-92.6l-1.1-.6a58.5 58.5 0 01-27.2-25.8 91 91 0 01-7.3-42.7v-.4l-1-.3-6.3-1.8-.6-.2-2.6 32.8c-.4 2-2 1.1-3.1.9-16.5-3.2-33.2-5-50-6.2 0 0-1.1-.3-1.1-1.4 1.3-10.8 2.1-22 6-32.3l.9-1.9c-1.9-.2-3.7-.2-5.6-.2z" fill-rule="nonzero"/></g><path d="M244.8 96c.8-2.2 1.4-4.4 1.9-6.6 7.5-34.6-17.1-70.5-55-80.2-37.9-9.7-74.7 10.5-82.2 45a60 60 0 00-.2 24.3L244.8 96z" fill="#c2c2c2"/><clipPath id="d"><path d="M244.8 96c.8-2.2 1.4-4.4 1.9-6.6 7.5-34.6-17.1-70.5-55-80.2-37.9-9.7-74.7 10.5-82.2 45a60 60 0 00-.2 24.3L244.8 96z"/></clipPath><g clip-path="url(#d)"><path d="M154.8 57.6c-1.2.6-2 1.4-2.1 2.3-1.2 4.6 11.5 10.6 28.3 13.6 16.7 2.9 31.3 1.6 32.5-3 .2-1-.2-2.2-1.4-3.5l-57.3-9.4z" fill="#191919"/><clipPath id="e"><path d="M154.8 57.6c-1.2.6-2 1.4-2.1 2.3-1.2 4.6 11.5 10.6 28.3 13.6 16.7 2.9 31.3 1.6 32.5-3 .2-1-.2-2.2-1.4-3.5l-57.3-9.4z"/></clipPath><g clip-path="url(#e)"><path d="M163.8 62c-.4 2.9 7.6 6.6 18 8.4 10.6 1.9 19.8 1 20.5-1.9v-.1L163.9 62z" fill="#fff"/></g><path d="M173.8 47.2c.8-7.7-3.4-14.8-9.8-16.4-6.8-1.8-13.5 3.4-15 11.4l-.2 1.4 25 3.6z" fill="#191919"/><clipPath id="f"><path d="M173.8 47.2c.8-7.7-3.4-14.8-9.8-16.4-6.8-1.8-13.5 3.4-15 11.4l-.2 1.4 25 3.6z"/></clipPath><g clip-path="url(#f)"><path d="M160.5 42.5c1-3.6 1-6.6.4-6.8-.8-.1-2.3 2.9-3.4 6.9l-.2.7 3.2-.8z" fill="#fff"/></g><path d="M214.3 54.2c.8-7.3-3.2-14-9.2-15.6-6.4-1.6-12.7 3.3-14.2 11l-.2 1.2 23.6 3.4z" fill="#191919"/><clipPath id="g"><path d="M214.3 54.2c.8-7.3-3.2-14-9.2-15.6-6.4-1.6-12.7 3.3-14.2 11l-.2 1.2 23.6 3.4z"/></clipPath><g clip-path="url(#g)"><path d="M201.4 49.7c.9-3.7 1-6.6.1-6.9-.9-.2-2.5 2.8-3.6 6.8l-.2.7 3.7-.6z" fill="#fff"/></g></g><path d="M173.3 3.5A80.4 80.4 0 01240 39.4a69.2 69.2 0 019 20.7c2.8 12 2.1 24.7-2.3 36l-.2.4-1.7-.5 1.7.5s-.7 1.2-1.9 1.2l-1.5-.2-134.2-16.4s-1.7-.2-2.2-2.1c0 0-.7-3.6-1-6.8a62.5 62.5 0 0127-56.7 72.5 72.5 0 0140.6-12zm-1.3 6.6c-23.3.1-46.8 12.8-56.4 34.5a57 57 0 00-4 31.5l93.2 12.6 38.8 5.3.2-1a65 65 0 00-22-64 75.5 75.5 0 00-49-19h-.8z" fill-rule="nonzero"/></svg>