<?xml version="1.0" encoding="UTF-8" standalone="no"?><!DOCTYPE svg PUBLIC "-//W3C//DTD SVG 1.1//EN" "http://www.w3.org/Graphics/SVG/1.1/DTD/svg11.dtd"><svg width="100%" height="100%" viewBox="0 0 5334 3000" version="1.1" xmlns="http://www.w3.org/2000/svg" xmlns:xlink="http://www.w3.org/1999/xlink" xml:space="preserve" xmlns:serif="http://www.serif.com/" style="fill-rule:evenodd;clip-rule:evenodd;stroke-linecap:round;stroke-linejoin:round;stroke-miterlimit:1.5;"><rect x="-0" y="0" width="5333.33" height="3000" style="fill:#4785ff;"/><path d="M4709.52,741.47c-0,-246.657 -363.768,-446.911 -811.828,-446.911c-448.061,-0 -811.829,200.254 -811.829,446.911c0,145.764 129.132,282.37 345.987,366.012l-102.438,304.354l357.932,-238.717c68.601,10.131 139.321,15.262 210.348,15.262c448.06,-0 811.828,-200.254 811.828,-446.911Z" style="fill:none;stroke:#ff47ff;stroke-width:45.83px;"/><circle cx="5230.35" cy="2088.92" r="1041.67" style="fill:none;stroke:#ff47ff;stroke-width:10.42px;stroke-dasharray:10.42,31.25,41.67,31.25;"/><circle cx="5282.43" cy="2088.92" r="989.583" style="fill:none;stroke:#ff47ff;stroke-width:10.42px;stroke-dasharray:10.42,31.25,41.67,31.25;"/><circle cx="5334.52" cy="2088.92" r="937.5" style="fill:none;stroke:#ff47ff;stroke-width:10.42px;stroke-dasharray:10.42,31.25,41.67,31.25;"/><circle cx="5386.6" cy="2088.92" r="885.417" style="fill:none;stroke:#ff47ff;stroke-width:10.42px;stroke-dasharray:10.42,31.25,41.67,31.25;"/><circle cx="5438.68" cy="2088.92" r="833.333" style="fill:none;stroke:#ff47ff;stroke-width:10.42px;stroke-dasharray:10.42,31.25,41.67,31.25;"/><circle cx="5490.77" cy="2088.92" r="781.25" style="fill:none;stroke:#ff47ff;stroke-width:10.42px;stroke-dasharray:10.42,31.25,41.67,31.25;"/><circle cx="5542.85" cy="2088.92" r="729.167" style="fill:none;stroke:#ff47ff;stroke-width:10.42px;stroke-dasharray:10.42,31.25,41.67,31.25;"/><circle cx="5594.93" cy="2088.92" r="677.083" style="fill:none;stroke:#ff47ff;stroke-width:10.42px;stroke-dasharray:10.42,31.25,41.67,31.25;"/><circle cx="5647.02" cy="2088.92" r="625" style="fill:none;stroke:#ff47ff;stroke-width:10.42px;stroke-dasharray:10.42,31.25,41.67,31.25;"/></svg>