<svg id="visual" viewBox="0 0 900 600" width="900" height="600" xmlns="http://www.w3.org/2000/svg" xmlns:xlink="http://www.w3.org/1999/xlink" version="1.1"><rect x="0" y="0" width="900" height="600" fill="#FFFFFF"></rect><path d="M0 394L21.5 402.5C43 411 86 428 128.8 429.7C171.7 431.3 214.3 417.7 257.2 415.5C300 413.3 343 422.7 385.8 413.8C428.7 405 471.3 378 514.2 379.8C557 381.7 600 412.3 642.8 419.7C685.7 427 728.3 411 771.2 395.3C814 379.7 857 364.3 878.5 356.7L900 349L900 601L878.5 601C857 601 814 601 771.2 601C728.3 601 685.7 601 642.8 601C600 601 557 601 514.2 601C471.3 601 428.7 601 385.8 601C343 601 300 601 257.2 601C214.3 601 171.7 601 128.8 601C86 601 43 601 21.5 601L0 601Z" fill="#722ed1"></path><path d="M0 440L21.5 442.7C43 445.3 86 450.7 128.8 457.2C171.7 463.7 214.3 471.3 257.2 467C300 462.7 343 446.3 385.8 442C428.7 437.7 471.3 445.3 514.2 450.5C557 455.7 600 458.3 642.8 459.2C685.7 460 728.3 459 771.2 448C814 437 857 416 878.5 405.5L900 395L900 601L878.5 601C857 601 814 601 771.2 601C728.3 601 685.7 601 642.8 601C600 601 557 601 514.2 601C471.3 601 428.7 601 385.8 601C343 601 300 601 257.2 601C214.3 601 171.7 601 128.8 601C86 601 43 601 21.5 601L0 601Z" fill="#3736ac"></path><path d="M0 454L21.5 462.5C43 471 86 488 128.8 488C171.7 488 214.3 471 257.2 462.8C300 454.7 343 455.3 385.8 463.7C428.7 472 471.3 488 514.2 487.2C557 486.3 600 468.7 642.8 461.8C685.7 455 728.3 459 771.2 465.2C814 471.3 857 479.7 878.5 483.8L900 488L900 601L878.5 601C857 601 814 601 771.2 601C728.3 601 685.7 601 642.8 601C600 601 557 601 514.2 601C471.3 601 428.7 601 385.8 601C343 601 300 601 257.2 601C214.3 601 171.7 601 128.8 601C86 601 43 601 21.5 601L0 601Z" fill="#003180"></path><path d="M0 536L21.5 530.2C43 524.3 86 512.7 128.8 505.3C171.7 498 214.3 495 257.2 497.2C300 499.3 343 506.7 385.8 510.7C428.7 514.7 471.3 515.3 514.2 517.2C557 519 600 522 642.8 526C685.7 530 728.3 535 771.2 531.7C814 528.3 857 516.7 878.5 510.8L900 505L900 601L878.5 601C857 601 814 601 771.2 601C728.3 601 685.7 601 642.8 601C600 601 557 601 514.2 601C471.3 601 428.7 601 385.8 601C343 601 300 601 257.2 601C214.3 601 171.7 601 128.8 601C86 601 43 601 21.5 601L0 601Z" fill="#002450"></path><path d="M0 558L21.5 558C43 558 86 558 128.8 554.3C171.7 550.7 214.3 543.3 257.2 542.3C300 541.3 343 546.7 385.8 546.8C428.7 547 471.3 542 514.2 545.7C557 549.3 600 561.7 642.8 560.8C685.7 560 728.3 546 771.2 538C814 530 857 528 878.5 527L900 526L900 601L878.5 601C857 601 814 601 771.2 601C728.3 601 685.7 601 642.8 601C600 601 557 601 514.2 601C471.3 601 428.7 601 385.8 601C343 601 300 601 257.2 601C214.3 601 171.7 601 128.8 601C86 601 43 601 21.5 601L0 601Z" fill="#001220"></path></svg>
