<svg id="visual" viewBox="0 0 900 600" width="900" height="600"
    xmlns="http://www.w3.org/2000/svg"
    xmlns:xlink="http://www.w3.org/1999/xlink" version="1.1">
    <rect x="0" y="0" width="900" height="600" fill="#001220"></rect>
    <path d="M639 600L633.3 585.7C627.7 571.3 616.3 542.7 616.5 514.2C616.7 485.7 628.3 457.3 622.8 428.8C617.3 400.3 594.7 371.7 588 343C581.3 314.3 590.7 285.7 598.5 257C606.3 228.3 612.7 199.7 615.8 171.2C619 142.7 619 114.3 616.3 85.8C613.7 57.3 608.3 28.7 605.7 14.3L603 0L900 0L900 14.3C900 28.7 900 57.3 900 85.8C900 114.3 900 142.7 900 171.2C900 199.7 900 228.3 900 257C900 285.7 900 314.3 900 343C900 371.7 900 400.3 900 428.8C900 457.3 900 485.7 900 514.2C900 542.7 900 571.3 900 585.7L900 600Z" fill="#9e1068"></path>
    <path d="M704 600L700.2 585.7C696.3 571.3 688.7 542.7 684.8 514.2C681 485.7 681 457.3 687 428.8C693 400.3 705 371.7 710.3 343C715.7 314.3 714.3 285.7 711.3 257C708.3 228.3 703.7 199.7 706.8 171.2C710 142.7 721 114.3 721.3 85.8C721.7 57.3 711.3 28.7 706.2 14.3L701 0L900 0L900 14.3C900 28.7 900 57.3 900 85.8C900 114.3 900 142.7 900 171.2C900 199.7 900 228.3 900 257C900 285.7 900 314.3 900 343C900 371.7 900 400.3 900 428.8C900 457.3 900 485.7 900 514.2C900 542.7 900 571.3 900 585.7L900 600Z" fill="#c4207f"></path>
    <path d="M809 600L807.8 585.7C806.7 571.3 804.3 542.7 795.7 514.2C787 485.7 772 457.3 764.3 428.8C756.7 400.3 756.3 371.7 756.2 343C756 314.3 756 285.7 758 257C760 228.3 764 199.7 766.7 171.2C769.3 142.7 770.7 114.3 776.2 85.8C781.7 57.3 791.3 28.7 796.2 14.3L801 0L900 0L900 14.3C900 28.7 900 57.3 900 85.8C900 114.3 900 142.7 900 171.2C900 199.7 900 228.3 900 257C900 285.7 900 314.3 900 343C900 371.7 900 400.3 900 428.8C900 457.3 900 485.7 900 514.2C900 542.7 900 571.3 900 585.7L900 600Z" fill="#eb2f96"></path>
</svg>
