<?xml version="1.0" encoding="UTF-8" standalone="no"?><!DOCTYPE svg PUBLIC "-//W3C//DTD SVG 1.1//EN" "http://www.w3.org/Graphics/SVG/1.1/DTD/svg11.dtd"><svg width="100%" height="100%" viewBox="0 0 22491 7169" version="1.1" xmlns="http://www.w3.org/2000/svg" xmlns:xlink="http://www.w3.org/1999/xlink" xml:space="preserve" xmlns:serif="http://www.serif.com/" style="fill-rule:evenodd;clip-rule:evenodd;stroke-linejoin:round;stroke-miterlimit:2;"><g><path d="M22488.6,1379.69c0,-760.491 -617.422,-1377.91 -1377.91,-1377.91l-19730.6,0c-760.491,0 -1377.91,617.422 -1377.91,1377.91l0,2755.83c0,760.491 617.422,1377.91 1377.91,1377.91l5930.17,0l-151.21,1653.15l3524.17,-1653.15l10427.4,0c760.49,0 1377.91,-617.421 1377.91,-1377.91l0,-2755.83Z" style="fill:#fff;"/><g><text x="1412.79px" y="3921.39px" style="font-family:'Gentona-ExtraBold', 'Gentona';font-weight:800;font-size:3672.88px;fill:#8748d7;">B<tspan x="3634.88px 5739.44px 7844px 9948.56px 10892.5px " y="3921.39px 3921.39px 3921.39px 3921.39px 3921.39px ">ubble</tspan></text><text x="13265.8px" y="3921.39px" style="font-family:'Gentona-ExtraBold', 'Gentona';font-weight:800;font-size:3672.88px;fill:#8748d7;">C<tspan x="15491.6px 17548.4px 19462px " y="3921.39px 3921.39px 3921.39px ">hat</tspan></text></g></g></svg>