<?xml version="1.0" encoding="UTF-8" standalone="no"?><!DOCTYPE svg PUBLIC "-//W3C//DTD SVG 1.1//EN" "http://www.w3.org/Graphics/SVG/1.1/DTD/svg11.dtd"><svg width="100%" height="100%" viewBox="0 0 22491 7169" version="1.1" xmlns="http://www.w3.org/2000/svg" xmlns:xlink="http://www.w3.org/1999/xlink" xml:space="preserve" xmlns:serif="http://www.serif.com/" style="fill-rule:evenodd;clip-rule:evenodd;stroke-linejoin:round;stroke-miterlimit:2;"><g><path d="M22488.6,1379.69c0,-760.491 -617.422,-1377.91 -1377.91,-1377.91l-19730.6,0c-760.491,0 -1377.91,617.422 -1377.91,1377.91l0,2755.83c0,760.491 617.422,1377.91 1377.91,1377.91l5930.17,0l-151.21,1653.15l3524.17,-1653.15l10427.4,0c760.49,0 1377.91,-617.421 1377.91,-1377.91l0,-2755.83Z" style="fill:#fff;"/><g><g><path d="M1592.76,1680.94l0,2240.46l995.351,0c657.445,0 995.35,-205.681 995.35,-609.698c0,-297.503 -150.588,-473.801 -455.437,-554.605c190.99,-77.13 312.195,-216.7 312.195,-433.4c0,-422.381 -301.176,-642.754 -877.818,-642.754l-969.641,0Zm686.829,877.819l-0,-341.578l282.812,-0c157.933,-0 227.718,51.42 227.718,168.952c0,110.187 -66.112,172.626 -183.644,172.626l-326.886,-0Zm-0,819.052l-0,-381.979l326.886,-0c172.626,-0 268.12,66.111 268.12,183.644c0,139.569 -84.476,198.335 -279.138,198.335l-315.868,0Z" style="fill:#722ed1;fill-rule:nonzero;"/><path d="M5577.83,3921.39l0,-1788.69l-664.791,-0l0,1043.1c-84.476,99.167 -187.317,168.952 -297.503,168.952c-135.897,0 -165.28,-62.439 -165.28,-249.756l0,-962.294l-664.791,-0l-0,1138.59c-0,484.82 205.681,683.155 580.315,683.155c202.008,0 315.868,-88.149 547.259,-242.41l0,209.354l664.791,0Z" style="fill:#722ed1;fill-rule:nonzero;"/><path d="M6558.49,1559.73l-664.791,0l0,2361.66l664.791,0l0,-202.008c139.57,150.588 238.738,235.064 510.531,235.064c370.961,0 697.847,-279.139 697.847,-947.603c0,-631.735 -224.046,-903.528 -661.118,-903.528c-205.682,-0 -370.961,73.457 -547.26,249.755l0,-793.342Zm0,1270.82c88.15,-113.859 179.972,-172.625 301.177,-172.625c161.606,-0 249.755,102.84 249.755,348.923c0,279.139 -95.494,400.344 -264.447,400.344c-135.897,0 -213.027,-55.093 -286.485,-161.607l0,-415.035Z" style="fill:#722ed1;fill-rule:nonzero;"/><path d="M8663.05,1559.73l-664.792,0l0,2361.66l664.792,0l-0,-202.008c139.569,150.588 238.737,235.064 510.53,235.064c370.961,0 697.847,-279.139 697.847,-947.603c0,-631.735 -224.045,-903.528 -661.118,-903.528c-205.681,-0 -370.961,73.457 -547.259,249.755l-0,-793.342Zm-0,1270.82c88.149,-113.859 179.971,-172.625 301.176,-172.625c161.607,-0 249.756,102.84 249.756,348.923c-0,279.139 -95.495,400.344 -264.448,400.344c-135.896,0 -213.027,-55.093 -286.484,-161.607l-0,-415.035Z" style="fill:#722ed1;fill-rule:nonzero;"/><rect x="10102.8" y="1559.73" width="664.791" height="2361.66" style="fill:#722ed1;fill-rule:nonzero;"/><path d="M12560,3289.66c-227.719,106.513 -385.653,154.261 -628.063,154.261c-179.971,-0 -271.793,-69.785 -304.849,-238.737l1105.54,-0c11.019,-102.841 14.692,-168.953 14.692,-249.756c-0,-550.932 -326.887,-855.781 -844.763,-855.781c-576.642,-0 -918.22,330.559 -918.22,940.257c0,595.007 352.597,914.547 918.22,914.547c304.849,0 558.278,-84.476 844.763,-286.484l-187.317,-378.307Zm-936.585,-440.746c29.383,-198.335 128.551,-293.83 279.139,-293.83c168.953,-0 260.775,102.841 268.121,293.83l-547.26,0Z" style="fill:#722ed1;fill-rule:nonzero;"/></g><g><path d="M15241.9,3190.49c-319.541,117.532 -477.475,150.588 -708.866,150.588c-282.812,0 -462.783,-198.335 -466.456,-532.567c-0,-370.961 176.298,-550.932 499.512,-550.932c168.952,-0 330.559,33.056 617.043,106.513l202.009,-517.876c-275.466,-135.897 -565.624,-202.008 -848.436,-202.008c-727.23,-0 -1164.3,418.708 -1164.3,1164.3c0,734.576 437.073,1145.94 1127.58,1145.94c337.905,0 613.371,-73.457 962.294,-253.428l-220.372,-510.531Z" style="fill:#722ed1;fill-rule:nonzero;"/><path d="M16310.7,1559.73l-664.792,0l0,2361.66l664.792,0l-0,-1010.04c88.149,-99.167 183.644,-165.279 297.503,-165.279c135.897,-0 165.28,58.766 165.28,246.083l-0,929.238l664.791,0l-0,-1138.59c-0,-484.82 -143.242,-679.482 -517.876,-679.482c-202.009,-0 -374.634,84.476 -609.698,286.484l-0,-830.071Z" style="fill:#722ed1;fill-rule:nonzero;"/><path d="M17897.3,2679.96c249.756,-51.421 440.746,-77.131 569.296,-77.131c179.972,0 224.046,77.131 224.046,231.392l-312.195,-0c-503.184,-0 -756.613,176.298 -756.613,554.605c-0,437.072 213.027,565.623 583.988,565.623c194.663,0 348.924,-88.149 484.82,-242.41l0,209.354l657.446,0l-0,-1087.17c-0,-517.876 -224.046,-734.576 -756.614,-734.576c-179.971,-0 -359.942,22.037 -793.342,139.569l99.168,440.746Zm793.342,466.456l0,224.045c-69.785,58.766 -154.261,106.514 -260.774,106.514c-113.86,-0 -190.99,-66.112 -190.99,-172.626c-0,-117.532 84.476,-157.933 231.391,-157.933l220.373,-0Z" style="fill:#722ed1;fill-rule:nonzero;"/><path d="M20832,3418.21c-84.476,3.673 -150.588,3.673 -227.718,3.673c-165.28,-0 -205.682,-77.131 -205.682,-209.355l0,-528.894l418.709,-0l-0,-547.259l-418.709,-0l0,-381.98l-664.791,-0l0,381.98l-242.41,-0l0,547.259l242.41,-0l0,558.278c0,510.53 183.644,708.865 613.371,708.865c198.336,0 426.054,-55.093 550.932,-132.223l-66.112,-400.344Z" style="fill:#722ed1;fill-rule:nonzero;"/></g></g></g></svg>