<?xml version="1.0" encoding="UTF-8" standalone="no"?><!DOCTYPE svg PUBLIC "-//W3C//DTD SVG 1.1//EN" "http://www.w3.org/Graphics/SVG/1.1/DTD/svg11.dtd"><svg width="100%" height="100%" viewBox="0 0 23313 7432" version="1.1" xmlns="http://www.w3.org/2000/svg" xmlns:xlink="http://www.w3.org/1999/xlink" xml:space="preserve" xmlns:serif="http://www.serif.com/" style="fill-rule:evenodd;clip-rule:evenodd;stroke-linejoin:round;stroke-miterlimit:2;"><g><path d="M23310.2,1429.69c0,-788.294 -639.994,-1428.29 -1428.29,-1428.29l-20451.9,-0c-788.294,-0 -1428.29,639.994 -1428.29,1428.29l-0,2856.58c-0,788.294 639.994,1428.29 1428.29,1428.29l6146.97,0l-156.738,1713.59l3653.01,-1713.59l10808.7,0c788.294,0 1428.29,-639.994 1428.29,-1428.29l0,-2856.58Z" style="fill:#8748d7;"/><g><text x="13739.7px" y="3981.38px" style="font-family:'Gentona-ExtraBold', 'Gentona';font-weight:800;font-size:3807.16px;fill:#fff;">C<tspan x="16046.8px 18178.8px 20162.3px " y="3981.38px 3981.38px 3981.38px ">hat</tspan></text><text x="1474.41px" y="3981.38px" style="font-family:'Gentona-ExtraBold', 'Gentona';font-weight:800;font-size:3807.16px;fill:#fff;">B<tspan x="3777.74px 5959.24px 8140.74px 10322.2px 11300.7px " y="3981.38px 3981.38px 3981.38px 3981.38px 3981.38px ">ubble</tspan></text></g></g></svg>