<?xml version="1.0" encoding="UTF-8" standalone="no"?><!DOCTYPE svg PUBLIC "-//W3C//DTD SVG 1.1//EN" "http://www.w3.org/Graphics/SVG/1.1/DTD/svg11.dtd"><svg width="100%" height="100%" viewBox="0 0 23313 7432" version="1.1" xmlns="http://www.w3.org/2000/svg" xmlns:xlink="http://www.w3.org/1999/xlink" xml:space="preserve" xmlns:serif="http://www.serif.com/" style="fill-rule:evenodd;clip-rule:evenodd;stroke-linejoin:round;stroke-miterlimit:2;"><g><path d="M23309.9,1430.86c0,-788.293 -639.994,-1428.29 -1428.29,-1428.29l-20451.9,0c-788.293,0 -1428.29,639.995 -1428.29,1428.29l0,2856.58c0,788.294 639.995,1428.29 1428.29,1428.29l6146.97,0l-156.737,1713.59l3653.01,-1713.59l10808.7,0c788.293,0 1428.29,-639.994 1428.29,-1428.29l0,-2856.58Z" style="fill:#722ed1;"/><g><g><path d="M15787.6,3224.92c-331.223,121.829 -494.931,156.093 -734.782,156.093c-293.151,0 -479.702,-205.586 -483.509,-552.038c0,-384.523 182.744,-571.073 517.774,-571.073c175.129,-0 342.644,34.264 639.602,110.407l209.394,-536.809c-285.537,-140.865 -586.303,-209.394 -879.454,-209.394c-753.817,0 -1206.87,434.016 -1206.87,1206.87c0,761.432 453.052,1187.83 1168.8,1187.83c350.258,0 635.795,-76.143 997.475,-262.693l-228.429,-529.195Z" style="fill:#fff;fill-rule:nonzero;"/><path d="M16895.5,1534.55l-689.095,-0l-0,2448l689.095,0l0,-1046.97c91.372,-102.794 190.358,-171.322 308.38,-171.322c140.865,-0 171.322,60.914 171.322,255.079l0,963.211l689.096,0l-0,-1180.22c-0,-502.545 -148.479,-704.324 -536.809,-704.324c-209.394,-0 -388.33,87.565 -631.989,296.958l0,-860.417Z" style="fill:#fff;fill-rule:nonzero;"/><path d="M18540.2,2695.73c258.886,-53.3 456.859,-79.951 590.109,-79.951c186.551,0 232.237,79.951 232.237,239.851l-323.609,0c-521.58,0 -784.274,182.744 -784.274,574.881c-0,453.052 220.815,586.302 605.338,586.302c201.779,0 361.68,-91.371 502.545,-251.272l-0,217.008l681.481,0l-0,-1126.92c-0,-536.809 -232.237,-761.431 -784.275,-761.431c-186.55,-0 -373.101,22.843 -822.346,144.672l102.794,456.859Zm822.346,483.509l-0,232.236c-72.336,60.915 -159.901,110.408 -270.309,110.408c-118.021,-0 -197.972,-68.529 -197.972,-178.936c0,-121.83 87.565,-163.708 239.851,-163.708l228.43,-0Z" style="fill:#fff;fill-rule:nonzero;"/><path d="M21582.1,3460.97c-87.565,3.808 -156.094,3.808 -236.044,3.808c-171.322,-0 -213.201,-79.951 -213.201,-217.008l0,-548.231l434.016,-0l-0,-567.267l-434.016,0l0,-395.944l-689.096,-0l0,395.944l-251.272,0l0,567.267l251.272,-0l0,578.688c0,529.195 190.358,734.781 635.796,734.781c205.586,0 441.63,-57.107 571.073,-137.057l-68.528,-414.981Z" style="fill:#fff;fill-rule:nonzero;"/></g><g><path d="M1660.64,1660.18l0,2322.37l1031.74,0c681.481,0 1031.74,-213.201 1031.74,-631.988c-0,-308.38 -156.094,-491.123 -472.088,-574.881c197.973,-79.95 323.609,-224.622 323.609,-449.245c-0,-437.823 -312.187,-666.252 -909.911,-666.252l-1005.09,-0Zm711.939,909.911l-0,-354.066l293.151,-0c163.708,-0 236.044,53.3 236.044,175.129c-0,114.215 -68.529,178.937 -190.358,178.937l-338.837,-0Zm-0,848.996l-0,-395.945l338.837,0c178.936,0 277.922,68.529 277.922,190.358c0,144.672 -87.564,205.587 -289.344,205.587l-327.415,-0Z" style="fill:#fff;fill-rule:nonzero;"/><path d="M5791.4,3982.55l-0,-1854.09l-689.096,0l0,1081.23c-87.565,102.793 -194.165,175.129 -308.38,175.129c-140.865,0 -171.322,-64.721 -171.322,-258.886l0,-997.476l-689.095,0l-0,1180.22c-0,502.545 213.2,708.131 601.531,708.131c209.393,0 327.415,-91.371 567.266,-251.272l0,217.008l689.096,0Z" style="fill:#fff;fill-rule:nonzero;"/><path d="M6807.91,1534.55l-689.096,-0l0,2448l689.096,0l-0,-209.394c144.672,156.094 247.465,243.658 529.195,243.658c384.523,0 723.36,-289.344 723.36,-982.246c-0,-654.831 -232.237,-936.561 -685.289,-936.561c-213.201,-0 -384.523,76.143 -567.266,258.887l-0,-822.346Zm-0,1317.28c91.371,-118.022 186.55,-178.936 312.187,-178.936c167.515,-0 258.886,106.6 258.886,361.68c0,289.344 -98.986,414.98 -274.115,414.98c-140.865,-0 -220.815,-57.107 -296.958,-167.515l-0,-430.209Z" style="fill:#fff;fill-rule:nonzero;"/><path d="M8989.42,1534.55l-689.096,-0l0,2448l689.096,0l0,-209.394c144.672,156.094 247.465,243.658 529.195,243.658c384.523,0 723.36,-289.344 723.36,-982.246c-0,-654.831 -232.237,-936.561 -685.288,-936.561c-213.201,-0 -384.523,76.143 -567.267,258.887l0,-822.346Zm0,1317.28c91.372,-118.022 186.551,-178.936 312.187,-178.936c167.515,-0 258.887,106.6 258.887,361.68c-0,289.344 -98.986,414.98 -274.116,414.98c-140.865,-0 -220.815,-57.107 -296.958,-167.515l0,-430.209Z" style="fill:#fff;fill-rule:nonzero;"/><rect x="10481.8" y="1534.55" width="689.096" height="2448" style="fill:#fff;fill-rule:nonzero;"/><path d="M13028.8,3327.72c-236.043,110.407 -399.751,159.901 -651.024,159.901c-186.55,-0 -281.729,-72.336 -315.994,-247.466l1145.95,0c11.421,-106.6 15.228,-175.129 15.228,-258.886c0,-571.074 -338.837,-887.068 -875.646,-887.068c-597.724,-0 -951.789,342.644 -951.789,974.632c-0,616.76 365.487,947.982 951.789,947.982c315.994,0 578.688,-87.564 875.646,-296.958l-194.165,-392.137Zm-970.825,-456.859c30.457,-205.587 133.251,-304.573 289.344,-304.573c175.129,0 270.308,106.601 277.923,304.573l-567.267,-0Z" style="fill:#fff;fill-rule:nonzero;"/></g></g></g></svg>