<?xml version="1.0" encoding="UTF-8" standalone="no"?><!DOCTYPE svg PUBLIC "-//W3C//DTD SVG 1.1//EN" "http://www.w3.org/Graphics/SVG/1.1/DTD/svg11.dtd"><svg width="100%" height="100%" viewBox="0 0 23313 7432" version="1.1" xmlns="http://www.w3.org/2000/svg" xmlns:xlink="http://www.w3.org/1999/xlink" xml:space="preserve" xmlns:serif="http://www.serif.com/" style="fill-rule:evenodd;clip-rule:evenodd;stroke-linejoin:round;stroke-miterlimit:2;"><g><path d="M23310.2,1429.69c0,-788.294 -639.994,-1428.29 -1428.29,-1428.29l-20451.9,-0c-788.294,-0 -1428.29,639.994 -1428.29,1428.29l-0,2856.58c-0,788.294 639.994,1428.29 1428.29,1428.29l6146.97,0l-156.738,1713.59l3653.01,-1713.59l10808.7,0c788.294,0 1428.29,-639.994 1428.29,-1428.29l0,-2856.58Z" style="fill:#8748d7;"/><g><g><path d="M15787.9,3223.75c-331.223,121.829 -494.93,156.093 -734.781,156.093c-293.151,0 -479.702,-205.586 -483.509,-552.038c-0,-384.523 182.743,-571.073 517.773,-571.073c175.129,-0 342.644,34.264 639.603,110.407l209.393,-536.809c-285.537,-140.865 -586.302,-209.394 -879.453,-209.394c-753.817,0 -1206.87,434.016 -1206.87,1206.87c-0,761.432 453.052,1187.83 1168.8,1187.83c350.259,-0 635.796,-76.144 997.476,-262.694l-228.43,-529.195Z" style="fill:#fff;fill-rule:nonzero;"/><path d="M16895.8,1533.37l-689.096,-0l0,2448l689.096,0l0,-1046.97c91.372,-102.793 190.358,-171.322 308.38,-171.322c140.865,-0 171.322,60.914 171.322,255.079l-0,963.211l689.095,0l0,-1180.22c0,-502.545 -148.479,-704.324 -536.809,-704.324c-209.393,0 -388.33,87.565 -631.988,296.958l0,-860.417Z" style="fill:#fff;fill-rule:nonzero;"/><path d="M18540.5,2694.56c258.887,-53.3 456.859,-79.95 590.11,-79.95c186.55,-0 232.236,79.95 232.236,239.85l-323.608,0c-521.581,0 -784.275,182.744 -784.275,574.881c0,453.052 220.815,586.303 605.338,586.303c201.78,-0 361.68,-91.372 502.545,-251.273l0,217.008l681.481,0l0,-1126.92c0,-536.809 -232.236,-761.431 -784.274,-761.431c-186.551,-0 -373.101,22.843 -822.346,144.672l102.793,456.859Zm822.346,483.509l0,232.237c-72.336,60.914 -159.9,110.407 -270.308,110.407c-118.022,0 -197.972,-68.529 -197.972,-178.936c-0,-121.829 87.564,-163.708 239.851,-163.708l228.429,-0Z" style="fill:#fff;fill-rule:nonzero;"/><path d="M21582.4,3459.8c-87.564,3.807 -156.093,3.807 -236.044,3.807c-171.322,-0 -213.2,-79.951 -213.2,-217.008l-0,-548.231l434.016,0l-0,-567.266l-434.016,-0l-0,-395.945l-689.096,0l0,395.945l-251.272,-0l-0,567.266l251.272,0l0,578.688c0,529.195 190.358,734.781 635.795,734.781c205.587,0 441.631,-57.107 571.074,-137.057l-68.529,-414.98Z" style="fill:#fff;fill-rule:nonzero;"/></g><g><path d="M1660.96,1659.01l-0,2322.37l1031.74,0c681.481,0 1031.74,-213.201 1031.74,-631.988c0,-308.38 -156.093,-491.123 -472.087,-574.881c197.972,-79.95 323.608,-224.622 323.608,-449.244c0,-437.824 -312.187,-666.253 -909.91,-666.253l-1005.09,-0Zm711.938,909.911l0,-354.066l293.152,0c163.707,0 236.043,53.3 236.043,175.129c0,114.215 -68.528,178.937 -190.357,178.937l-338.838,-0Zm0,848.996l0,-395.945l338.838,0c178.936,0 277.922,68.529 277.922,190.358c0,144.672 -87.565,205.587 -289.344,205.587l-327.416,-0Z" style="fill:#fff;fill-rule:nonzero;"/><path d="M5791.73,3981.38l0,-1854.09l-689.095,0l-0,1081.23c-87.565,102.793 -194.165,175.129 -308.38,175.129c-140.865,0 -171.322,-64.721 -171.322,-258.886l-0,-997.476l-689.096,0l0,1180.22c0,502.545 213.201,708.132 601.531,708.132c209.394,-0 327.416,-91.372 567.267,-251.273l-0,217.008l689.095,0Z" style="fill:#fff;fill-rule:nonzero;"/><path d="M6808.24,1533.37l-689.095,-0l-0,2448l689.095,0l0,-209.393c144.672,156.093 247.465,243.658 529.195,243.658c384.523,-0 723.36,-289.344 723.36,-982.247c0,-654.831 -232.237,-936.561 -685.288,-936.561c-213.201,0 -384.523,76.143 -567.267,258.887l0,-822.346Zm0,1317.28c91.372,-118.022 186.551,-178.936 312.187,-178.936c167.515,-0 258.887,106.6 258.887,361.68c-0,289.344 -98.986,414.98 -274.116,414.98c-140.864,0 -220.815,-57.107 -296.958,-167.515l0,-430.209Z" style="fill:#fff;fill-rule:nonzero;"/><path d="M8989.74,1533.37l-689.096,-0l0,2448l689.096,0l-0,-209.393c144.672,156.093 247.465,243.658 529.194,243.658c384.523,-0 723.36,-289.344 723.36,-982.247c0,-654.831 -232.236,-936.561 -685.288,-936.561c-213.201,0 -384.523,76.143 -567.266,258.887l-0,-822.346Zm-0,1317.28c91.371,-118.022 186.55,-178.936 312.186,-178.936c167.515,-0 258.887,106.6 258.887,361.68c0,289.344 -98.986,414.98 -274.115,414.98c-140.865,0 -220.815,-57.107 -296.958,-167.515l-0,-430.209Z" style="fill:#fff;fill-rule:nonzero;"/><rect x="10482.1" y="1533.37" width="689.096" height="2448" style="fill:#fff;fill-rule:nonzero;"/><path d="M13029.1,3326.55c-236.044,110.408 -399.752,159.901 -651.024,159.901c-186.551,-0 -281.73,-72.336 -315.994,-247.466l1145.95,0c11.422,-106.6 15.229,-175.129 15.229,-258.886c-0,-571.074 -338.837,-887.068 -875.646,-887.068c-597.724,-0 -951.79,342.644 -951.79,974.632c0,616.76 365.487,947.983 951.79,947.983c315.994,-0 578.688,-87.565 875.646,-296.959l-194.165,-392.137Zm-970.825,-456.859c30.457,-205.586 133.25,-304.572 289.344,-304.572c175.129,-0 270.308,106.6 277.922,304.572l-567.266,0Z" style="fill:#fff;fill-rule:nonzero;"/></g></g></g></svg>