<?xml version="1.0" encoding="UTF-8" standalone="no"?><!DOCTYPE svg PUBLIC "-//W3C//DTD SVG 1.1//EN" "http://www.w3.org/Graphics/SVG/1.1/DTD/svg11.dtd"><svg width="100%" height="100%" viewBox="0 0 8912 20041" version="1.1" xmlns="http://www.w3.org/2000/svg" xmlns:xlink="http://www.w3.org/1999/xlink" xml:space="preserve" xmlns:serif="http://www.serif.com/" style="fill-rule:evenodd;clip-rule:evenodd;stroke-linejoin:round;stroke-miterlimit:2;"><g id="user"><path d="M7667.82,1215.03c-214.575,635.306 -543.6,1214.17 -1214.17,1214.17c-670.568,0 -1176.38,-544.666 -1214.17,-1214.17c-48.279,-855.489 528.132,-1217.71 1214.17,-1214.17c810.438,4.186 1468.82,460.211 1214.17,1214.17Z" style="fill:#2f2e41;fill-rule:nonzero;"/><rect x="5239.49" y="1187.72" width="2396.38" height="3035.42" style="fill:#2f2e41;"/><path d="M7706.23,3449.12l203.828,-0c304.677,434.268 404.085,981.011 271.771,1494.73c-226.475,860.604 -45.297,1019.13 -45.297,1019.13c0,0 294.837,931.962 -22.226,2336.11c-317.064,1404.14 293.997,1785.74 293.997,1785.74l-566.188,-1132.37l-317.063,-2989.47l181.178,-2513.87Z" style="fill:#e6e6e6;fill-rule:nonzero;"/><path d="M6992.84,2350.72c0,0 -181.179,724.719 -90.59,724.719c90.588,-0 407.654,385.006 407.654,385.006l203.828,747.366l-158.532,543.539l-543.539,-113.236l-679.425,-747.366l-203.828,-203.828l-181.18,-656.776c-0,-0 226.474,-271.77 67.943,-498.245c-158.532,-226.474 1177.67,-181.179 1177.67,-181.179Z" style="fill:#fbbebe;fill-rule:nonzero;"/><path d="M1512.15,4366.34l-498.244,-815.309c0,0 -537.829,-1190 -922.835,-759.695c-385.006,430.303 583.124,1303.24 583.124,1303.24l498.245,656.777l339.71,-385.008Z" style="fill:#fbbebe;fill-rule:nonzero;"/><path d="M8125.21,11455l-362.36,2649.75c0,0 45.297,203.828 -407.654,951.194c-452.95,747.365 -1675.91,2377.98 -1675.91,2377.98l-362.36,-679.425c0,0 430.303,-2151.51 1177.67,-2604.46l-90.591,-3261.24l1721.21,566.189Z" style="fill:#fbbebe;fill-rule:nonzero;"/><path d="M5316.93,16482.7l498.246,951.193c-0,0 -407.655,572.331 -249.125,685.568c158.53,113.237 362.36,1132.37 -67.942,1019.13c-430.303,-113.239 -770.014,-566.188 -770.014,-634.127c-0,-67.939 249.124,-436.443 113.237,-662.919c-135.887,-226.476 -226.475,-294.417 -226.475,-294.417l-271.159,360.532l-113.237,-67.943l497.636,-745.538c-0,0 67.942,-181.179 339.711,-294.416l249.122,-317.067Z" style="fill:#2f2e41;fill-rule:nonzero;"/><path d="M6409.29,11079.1c-0,0 175.896,2504.81 -209.114,3161.59l-0,3261.24l-520.891,67.943c-0,-0 -1051.93,-1726.58 -666.919,-3425.14c385.008,-1698.56 -397.514,-3255.87 -397.514,-3255.87l1794.44,190.241Z" style="fill:#fbbebe;fill-rule:nonzero;"/><circle cx="6279.44" cy="1954.39" r="951.194" style="fill:#fbbebe;"/><path d="M7241.96,4456.94l-951.194,-1200.32l-543.539,-362.359l-226.475,294.417l-634.126,181.18c-0,-0 -407.655,90.59 -837.957,588.834c-430.303,498.245 -1200.32,792.662 -1200.32,792.662c-0,0 -1381.49,-452.949 -1381.49,-543.539c-0,-90.59 -656.777,611.482 -498.245,883.251c158.532,271.77 914.129,1102.07 2023.86,943.538c1109.73,-158.533 1531.8,-309.408 1531.8,-309.408c-0,-0 203.828,1041.78 792.662,1245.61c588.834,203.827 2513.87,339.712 2513.87,339.712l407.657,-1358.85c-0,0 452.948,-588.835 -158.532,-1449.44c-0,-0 -11.739,-481.312 -77.479,-801.591c-25.57,-124.576 -59.309,-224.788 -103.703,-262.841c-158.532,-135.885 -996.489,-362.36 -996.489,-362.36c0,0 135.886,452.95 203.829,475.597c67.942,22.647 226.468,792.658 135.877,905.898Z" style="fill:#e6e6e6;fill-rule:nonzero;"/><path d="M4332.98,13856.5c1140.52,-79.266 1804.55,107.575 2100.78,250.028c55.073,24.922 260.514,77.195 260.514,85.799c-0,67.943 1490.37,238.713 2056.56,102.828c566.188,-135.886 -523.703,-5682.37 -772.827,-5931.49c-249.124,-249.124 -114.822,-1160.91 -114.822,-1160.91c-0,0 -2285.81,-311.175 -2489.64,-356.469c-91.044,-20.156 -137.019,13.815 -159.895,57.751c-35.601,65.9 -89.372,120.222 -154.906,156.493c-480.805,276.98 -866.72,2192.05 -1157.29,3250.82c-317.061,1155.02 431.522,3545.15 431.522,3545.15Z" style="fill:#2f2e41;fill-rule:nonzero;"/><path d="M6290.77,17298.1c0,-0 266.402,973.071 430.303,1743.86c-0,0 113.237,267.503 520.891,471.331c407.655,203.828 -69.161,542.32 -454.167,519.672c-385.006,-22.647 -747.366,22.648 -792.662,-90.589c-45.297,-113.237 -179.96,-605.997 -179.96,-605.997l-74.353,681.637l-226.474,22.649l74.353,-885.465c-0,-0 -181.18,-339.712 67.942,-905.9l-62.873,-869.086c-0,0 629.058,144.367 697,-82.107Z" style="fill:#2f2e41;fill-rule:nonzero;"/><path d="M6296.66,11467.2c55.072,24.922 106.933,56.404 154.457,93.76c11.999,-214.016 81.302,-1508.32 -1.813,-1487.49l-152.644,1393.73Z" style="fill-opacity:0.1;fill-rule:nonzero;"/><path d="M5885.67,644.542c-0,0 -10.534,-58.641 -422.523,95.856c-411.99,154.496 -658.95,1294.61 -452.955,1964.09c83.014,269.799 15.484,464.323 -94.736,600.43c-413.615,510.751 -250.793,1277.88 351.669,1540.53c17.006,7.412 34.359,14.741 52.06,21.985l257.492,154.496c0,0 -328.249,-431.906 -163.982,-984.395c142.645,-470.708 160.264,-970.551 51.116,-1450.13c-18.846,-80.908 -40.253,-164.308 -64.571,-249.42c-205.994,-720.98 -105.805,-637.716 615.176,-1358.7c0,0 411.99,308.993 772.481,463.489c360.491,154.497 669.484,308.992 411.989,823.98c-257.494,514.988 -875.477,978.477 -463.487,1647.96c411.989,669.482 463.487,411.989 411.989,669.483l-51.498,257.492l308.992,-308.992l-205.996,411.989c0,0 669.482,0 875.48,-514.987l102.997,102.998c-0,-0 411.991,-720.982 -360.491,-1390.47c-0,0 -257.494,-154.496 102.997,-669.483c360.491,-514.987 83.631,-1622.21 -379.858,-1828.2c-463.488,-205.995 -1654.34,0 -1654.34,0Z" style="fill:#2f2e41;fill-rule:nonzero;"/></g></svg>