<?xml version="1.0" encoding="UTF-8" standalone="no"?>
<!DOCTYPE svg PUBLIC "-//W3C//DTD SVG 1.1//EN" "http://www.w3.org/Graphics/SVG/1.1/DTD/svg11.dtd">
<svg width="100%" height="100%" viewBox="0 0 12 12" version="1.1" xmlns="http://www.w3.org/2000/svg" xmlns:xlink="http://www.w3.org/1999/xlink" xml:space="preserve" xmlns:serif="http://www.serif.com/" style="fill-rule:evenodd;clip-rule:evenodd;stroke-linejoin:round;stroke-miterlimit:2;">
    <path d="M5.357,1.071L1.286,1.071C1.168,1.071 1.071,1.168 1.071,1.286L1.071,5.357C1.071,5.475 1.168,5.571 1.286,5.571L5.357,5.571C5.475,5.571 5.571,5.475 5.571,5.357L5.571,1.286C5.571,1.168 5.475,1.071 5.357,1.071ZM4.661,4.661L1.982,4.661L1.982,1.982L4.661,1.982L4.661,4.661ZM10.714,1.071L6.643,1.071C6.525,1.071 6.429,1.168 6.429,1.286L6.429,5.357C6.429,5.475 6.525,5.571 6.643,5.571L10.714,5.571C10.832,5.571 10.929,5.475 10.929,5.357L10.929,1.286C10.929,1.168 10.832,1.071 10.714,1.071ZM10.018,4.661L7.339,4.661L7.339,1.982L10.018,1.982L10.018,4.661ZM5.357,6.429L1.286,6.429C1.168,6.429 1.071,6.525 1.071,6.643L1.071,10.714C1.071,10.832 1.168,10.929 1.286,10.929L5.357,10.929C5.475,10.929 5.571,10.832 5.571,10.714L5.571,6.643C5.571,6.525 5.475,6.429 5.357,6.429ZM4.661,10.018L1.982,10.018L1.982,7.339L4.661,7.339L4.661,10.018ZM10.714,6.429L6.643,6.429C6.525,6.429 6.429,6.525 6.429,6.643L6.429,10.714C6.429,10.832 6.525,10.929 6.643,10.929L10.714,10.929C10.832,10.929 10.929,10.832 10.929,10.714L10.929,6.643C10.929,6.525 10.832,6.429 10.714,6.429ZM10.018,10.018L7.339,10.018L7.339,7.339L10.018,7.339L10.018,10.018Z" style="fill-rule:nonzero;"/>
</svg>
