<?xml version="1.0" encoding="UTF-8" standalone="no"?><!DOCTYPE svg PUBLIC "-//W3C//DTD SVG 1.1//EN" "http://www.w3.org/Graphics/SVG/1.1/DTD/svg11.dtd"><svg width="100%" height="100%" viewBox="0 0 1321 250" version="1.1" xmlns="http://www.w3.org/2000/svg" xmlns:xlink="http://www.w3.org/1999/xlink" xml:space="preserve" xmlns:serif="http://www.serif.com/" style="fill-rule:evenodd;clip-rule:evenodd;stroke-linejoin:round;stroke-miterlimit:2;"><g id="logo"><g id="Bildmarke"><path d="M345.833,162.5c-1.25,0 -2.5,0.417 -3.75,0.833c-1.666,-5.833 -3.333,-11.666 -4.583,-17.5l6.667,-9.166c0.833,-1.25 12.083,-15.417 12.083,-28.75c0,-19.584 -16.667,-20 -18.333,-20c-4.167,-0 -10.417,1.666 -14.167,6.666c-3.75,4.584 -4.583,10.834 -2.917,18.334c0.417,1.25 4.167,16.25 8.334,31.25l-6.667,8.75l-14.583,-55.834l33.333,-24.583c9.167,-7.083 14.583,-18.333 14.583,-30c0,-17.917 -12.5,-33.333 -29.583,-37.083l0,-3.75l-6.667,-1.667l0,4.167l-19.166,-1.25l-6.25,-0l-0,15.416l6.25,0c1.666,0 3.333,1.667 3.333,3.334c0,1.666 -1.667,3.333 -3.333,3.333l-20.834,-2.083l1.667,6.666l18.75,1.667l0.417,0c5.416,0 9.583,-4.167 9.583,-9.583c0,-5.417 -4.167,-9.584 -9.583,-9.584l-0,-2.5l18.75,1.25l-0,17.917c-0,2.083 -0.834,3.75 -2.084,5c-1.25,1.25 -3.333,2.083 -5.416,1.667l-21.25,-1.25l1.666,6.25c-5.833,3.75 -10.833,8.75 -14.583,14.166l-8.333,-17.916c1.25,-2.084 1.666,-4.584 1.666,-6.667c0,-8.333 -6.666,-15 -15,-15c-5.416,0 -10,2.5 -12.5,6.667l1.667,-17.5l-133.75,-0l1.25,17.916c-2.5,-4.166 -7.5,-6.666 -12.5,-6.666c-8.333,-0 -15,6.666 -15,15c0,2.5 0.417,4.583 1.667,6.666l-8.334,17.917c-3.75,-5.833 -8.75,-10.417 -14.583,-14.167l1.667,-6.25l-21.25,1.25c-2.084,0 -3.75,-0.416 -5.417,-1.666c-1.25,-2.084 -1.667,-3.75 -1.667,-5.834l0,-17.916l18.75,-1.25l0,2.5c-5.416,-0 -9.583,4.583 -9.583,9.583c0,5.417 4.167,9.583 9.583,9.583l0.417,0l18.75,-1.25l1.667,-6.666l-20.834,2.083c-1.666,0 -3.333,-1.667 -3.333,-3.333c0,-1.667 1.667,-3.334 3.333,-3.334l6.25,0l0,-15l-6.25,0l-18.75,0.834l0,-4.167l-6.666,1.667l-0,3.333c-17.5,3.75 -29.584,19.167 -29.584,37.083c0,11.667 5.417,22.917 14.584,30l33.333,24.584l-14.583,56.25l-6.667,-8.75c4.167,-14.584 7.917,-29.584 8.333,-31.25c1.667,-7.5 0.834,-13.75 -2.916,-18.334c-3.75,-5 -10,-6.666 -14.167,-6.666c-2.083,-0 -18.75,0.833 -18.75,20.416c0,12.917 11.25,27.084 12.083,28.75l6.667,8.75c-1.667,5.834 -3.333,11.667 -4.583,17.5c-0.834,-0.416 -2.084,-0.833 -3.334,-0.833c-5,0 -9.166,4.167 -9.166,9.167c-0,5 4.166,9.166 9.166,9.166c4.167,0 7.917,-2.916 8.75,-6.666c0.417,-2.084 2.917,-10.417 5.417,-20l6.667,8.75l-17.5,65.833c-0.417,1.25 -0.417,2.083 -0.417,3.333c0,8.334 6.667,15 15,15c8.333,0 15,-6.666 15,-15c0,-3.75 -1.25,-7.083 -3.75,-10l15.417,-25l30.833,43.334c2.917,4.166 7.5,6.25 12.5,6.25c8.333,-0 15,-6.667 15,-15c0,-8.334 -6.667,-15 -15,-15l-0.833,-0l-20.834,-59.167c-2.083,-5.417 -6.666,-9.167 -12.5,-10l-2.5,0l14.167,-30.833l18.75,13.75c2.5,2.083 5.833,3.333 9.167,3.333c0.833,0 1.666,0 2.916,-0.417l5.417,54.584c1.667,15 9.583,29.583 22.083,40.833c12.917,11.667 28.334,17.917 44.167,17.917c15.833,-0 31.667,-6.25 44.167,-17.917c12.5,-11.25 20.416,-26.25 22.083,-40.833l5,-54.167c0.833,0 1.667,0.417 2.917,0.417c3.333,-0 6.666,-1.25 9.166,-3.334l18.75,-13.75l14.167,30.834l-2.5,-0c-5.833,0.833 -10.417,4.583 -12.5,10l-20.833,59.166l-0.834,0c-8.333,0 -15,6.667 -15,15c0,8.334 6.667,15 15,15c5,0 9.584,-2.5 12.5,-6.25l30.834,-43.333l15.416,25c-3.333,2.5 -4.583,5.833 -4.583,9.583c0,8.334 6.667,15 15,15c8.333,0 15,-6.666 15,-15c0,-1.25 0,-2.083 -0.417,-3.333l-17.083,-65.833l6.667,-8.75c2.5,9.583 5,17.916 5.416,20c0.834,3.75 4.584,6.666 8.75,6.666c5,0 9.167,-4.166 9.167,-9.166c0,-5 -4.167,-9.167 -9.167,-9.167Zm-324.166,-26.25l-2.917,-4.167c-2.917,-3.75 -10.417,-15 -10.417,-23.75c0,-10.833 7.5,-12.083 10.417,-12.083c2.5,0 5.833,0.833 8.333,3.75c2.084,2.5 2.5,6.667 1.667,11.667c-0.833,0.833 -3.75,11.25 -7.083,24.583Zm235,-113.333c4.166,-0 7.083,3.333 7.083,7.083c0,1.667 -0.417,2.917 -1.25,4.167l-1.25,1.666l12.917,27.084c-1.667,4.583 -2.917,9.166 -2.917,14.166l-20.833,-45c-0.417,-0.833 -0.417,-1.666 -0.417,-2.5c-0.833,-3.333 2.5,-6.666 6.667,-6.666Zm-44.584,20l-18.333,-0l0,-8.75l18.75,-0l-0.417,8.75Zm-24.583,-0l-18.333,-0l-0,-8.75l18.333,-0l0,8.75Zm-24.583,-0l-18.334,-0l-0.416,-8.75l18.333,-0l0.417,8.75Zm-25,-0l-17.084,-0l-0.833,-8.75l17.917,-0l-0,8.75Zm97.5,6.666l-0.834,10.417l-112.5,0l-0.833,-10.417l114.167,0Zm0.416,-6.666l-17.5,-0l0.417,-8.75l17.917,-0l-0.834,8.75Zm-10,-32.084l-0.416,11.25l6.25,0l0.416,-11.25l6.25,0l-1.25,17.084l-18.333,-0l0.417,-17.084l6.666,0Zm-25.416,0l-0.417,11.25l6.25,0l0.417,-11.25l6.25,0l-0.417,17.084l-18.75,-0l0.417,-17.084l6.25,0Zm-25.417,0l0,11.25l6.25,0l0,-11.25l6.25,0l0,17.084l-18.75,-0l-0.417,-17.084l6.667,0Zm-25.417,0l0.417,11.25l6.25,0l-0.417,-11.25l6.667,0l0,17.084l-18.75,-0l-0.417,-17.084l6.25,0Zm-25.416,0l0.833,11.25l6.25,0l-0.417,-11.25l6.25,0l0.417,17.084l-18.333,-0l-1.25,-17.084l6.25,0Zm-10.417,25.417l2.5,30l124.167,0l2.5,-30l27.083,58.333l-13.75,10c-0.833,-0.416 -2.083,-0.416 -3.333,-0.416l2.5,-27.084l-154.167,0l2.5,27.084c-1.25,-0 -2.5,-0 -3.75,0.416l-13.75,-10l27.5,-58.333Zm4.583,77.917l16.25,-0l10.417,10l-26.667,-0c0.417,-1.667 0.834,-3.334 0.834,-5c-0,-1.667 -0.417,-3.334 -0.834,-5Zm-4.166,-6.25c-0.417,-0.417 -1.25,-1.25 -2.084,-1.667l-1.25,-15l17.084,16.25l-13.75,0l-0,0.417Zm-18.75,-71.667l-1.25,-1.667c-0.834,-1.25 -1.25,-2.916 -1.25,-4.166c-0,-4.167 3.333,-7.084 7.083,-7.084c4.167,0 7.083,3.334 7.083,7.084c0,0.833 0,1.666 -0.416,2.5l-20.834,45c-0.416,-5 -1.25,-9.584 -2.916,-14.167l12.5,-27.5Zm-32.084,119.583c1.667,0.417 5,1.25 6.25,5l23.334,65.834l3.75,-1.25c0.833,-0.417 1.666,-0.417 2.083,-0.417c4.167,0 7.083,3.333 7.083,7.083c0,3.75 -3.333,7.084 -7.083,7.084c-2.5,-0 -4.583,-1.25 -5.833,-2.917l-32.5,-46.25l2.083,-3.75c1.25,-2.5 2.083,-5 2.083,-7.5c0,-6.667 -4.583,-12.5 -10.833,-14.167l3.333,-7.5c1.25,-0.833 3.75,-1.666 6.25,-1.25Zm-18.75,10l4.584,6.25l1.25,0c3.75,0 6.666,2.917 6.666,6.667c0,1.25 -0.416,2.5 -0.833,3.333l-26.25,41.667l3.333,2.083c2.084,1.25 3.334,3.75 3.334,5.834c-0,4.166 -3.334,7.083 -7.084,7.083c-3.75,0 -7.083,-3.333 -7.083,-7.083l0,-1.667l33.75,-128.75l14.167,10.417l-25.834,54.166Zm59.584,-39.583c-1.667,0 -3.334,-0.417 -4.584,-1.667l-79.166,-58.75c-7.5,-5.833 -11.667,-14.583 -11.667,-23.75c0,-13.75 9.167,-25.416 21.667,-29.166l-0,15c-0,3.75 1.666,7.083 4.166,9.583c2.5,2.917 5.834,4.167 9.167,4.167l0.833,-0l5.834,-0.417c1.25,0.417 2.5,0.833 2.916,0.833c15.834,6.25 26.25,21.667 26.25,38.75c0,2.5 -0.416,5.417 -0.833,7.917l-16.667,-12.083l-2.083,8.333l38.75,28.75l2.083,-0.833c1.667,-0.834 3.75,-0.834 5.834,-0c2.5,1.25 4.583,3.75 4.583,6.666c0,2.5 -1.25,4.584 -3.333,5.834c-1.25,0.416 -2.5,0.833 -3.75,0.833Zm10,4.167l37.083,-0l10.417,10l-46.25,-0l-1.25,-10Zm1.666,16.25l52.5,-0l10.417,10l-61.667,-0l-1.25,-10Zm1.667,16.25l67.917,-0l10.416,10l-77.5,-0l-0.833,-10Zm2.5,25l-0.833,-8.334l83.333,0l10.417,10l-92.917,0l0,-1.666Zm1.25,7.916l97.917,0l10.416,10l-104.166,0c-1.667,-3.333 -2.917,-6.666 -4.167,-10Zm57.083,43.75c-11.666,0 -23.333,-4.166 -32.916,-10.833l65.833,0c-9.583,6.667 -21.25,10.833 -32.917,10.833Zm40.417,-17.5l-81.25,0c-3.333,-2.916 -5.833,-6.25 -8.333,-10l98.333,0c-2.5,3.75 -5.417,7.084 -8.75,10Zm17.917,-34.166c-0.417,3.75 -1.25,7.5 -2.5,11.25l-118.75,-114.167l131.25,0l-2.084,21.25c-4.166,2.917 -7.083,7.5 -7.083,12.917c0,4.166 1.667,8.333 4.583,10.833l-5.416,57.917Zm20.416,-63.334c-1.25,1.25 -2.916,1.667 -4.583,1.667c-1.25,0 -2.917,-0.417 -4.167,-1.25c-2.083,-1.25 -3.333,-3.75 -3.333,-5.833c0,-2.917 1.667,-5.417 4.583,-6.667c1.667,-0.833 3.75,-0.833 5.834,0l2.083,0.833l38.75,-28.75l-2.083,-8.333l-16.667,12.083c-0.417,-2.5 -0.833,-5 -0.833,-7.916c-0,-17.084 10.416,-32.084 26.25,-38.75c0.416,-0 1.666,-0.417 2.916,-0.834l5.834,0.417l0.833,-0c3.333,-0 6.667,-1.25 9.167,-3.75c2.5,-2.5 4.166,-5.833 4.166,-9.583l0,-15c12.917,3.75 21.667,15.416 21.667,29.166c0,9.167 -4.167,17.917 -11.667,23.75l-78.75,58.75Zm6.667,111.667c-1.25,2.083 -3.75,2.917 -5.833,2.917c-4.167,-0 -7.084,-3.334 -7.084,-7.084c0,-3.75 3.334,-7.083 7.084,-7.083c0.833,0 1.666,0 2.083,0.417l3.75,1.25l23.333,-65.834c1.25,-3.75 4.584,-4.583 6.25,-5c2.5,-0.416 5,0.417 5.834,1.25l3.333,7.5c-6.25,1.667 -10.833,7.5 -10.833,14.584c-0,2.5 0.833,5.416 2.083,7.5l2.083,3.75l-32.083,45.833Zm70.833,-5.417l0,1.667c0,4.167 -3.333,7.083 -7.083,7.083c-3.75,0 -7.083,-3.333 -7.083,-7.083c-0,-2.5 1.25,-4.583 3.333,-5.833l3.333,-2.084l-26.25,-41.666c-0.833,-1.25 -0.833,-2.084 -0.833,-3.334c0,-3.75 2.917,-6.666 6.667,-6.666l1.25,-0l4.583,-6.25l-25,-53.75l14.167,-10.417l32.916,128.333Zm-6.25,-119.583c-1.25,-5.417 -0.833,-9.167 1.667,-11.667c2.083,-2.5 5.833,-3.75 8.333,-3.75c3.334,0 10.417,1.25 10.417,12.084c0,10.416 -10.417,23.333 -10.417,23.75l-3.333,4.166c-3.333,-12.916 -6.25,-23.333 -6.667,-24.583Z" style="fill:#0f0596;fill-rule:nonzero;"/></g><g id="Stadt_Zürich"><g><g><path d="M467.5,9.167c9.167,-0 16.25,2.083 21.667,6.25c5.416,4.166 7.916,10 7.916,17.5l-15.833,-0c0,-3.75 -1.667,-6.667 -3.75,-8.334c-2.5,-1.666 -5.833,-2.916 -10.833,-2.916c-3.334,-0 -6.25,0.833 -8.334,2.083c-2.083,1.25 -3.333,3.75 -3.333,6.25c0,2.083 0.833,3.75 2.083,4.583c1.25,0.834 2.917,1.667 5.417,2.5c2.5,0.834 6.667,1.667 12.5,3.334c6.25,1.666 10.833,3.333 14.167,5c3.333,1.666 5.833,4.166 7.5,7.083c1.666,2.917 2.5,6.25 2.5,10.417c-0,4.583 -1.25,8.75 -3.75,12.5c-2.5,3.75 -6.25,6.666 -10.834,8.333c-4.583,1.667 -10,2.917 -16.25,2.917c-9.166,-0 -16.666,-2.5 -22.916,-7.084c-5.834,-4.583 -8.75,-10.833 -8.75,-19.166l-0,-0.417l15.833,0c0,4.167 1.667,7.917 4.583,10c2.917,2.5 7.084,3.75 11.667,3.75c4.167,0 7.917,-0.833 10.417,-2.5c2.5,-1.667 4.166,-3.75 4.166,-7.083c0,-2.084 -0.833,-3.75 -2.083,-5c-1.25,-1.25 -3.333,-2.5 -5.833,-3.334c-2.5,-0.833 -6.667,-2.083 -12.084,-3.333c-6.666,-1.667 -11.666,-3.333 -14.583,-5.417c-2.917,-2.083 -5.417,-4.166 -7.083,-6.666c-1.667,-2.5 -2.5,-5.834 -2.5,-9.584c-0,-4.583 1.25,-8.75 4.166,-12.083c2.5,-3.333 6.25,-5.833 10.417,-7.5c4.583,-1.25 9.167,-2.083 13.75,-2.083Z" style="fill:#0f0596;fill-rule:nonzero;"/><path d="M526.667,15.417l-0,16.25l10.833,-0l0,10l-10.833,-0l-0,26.666c-0,2.5 0.416,4.167 1.25,5c0.833,0.834 2.5,1.25 5,1.25c1.666,0 3.333,0 4.583,-0.416l0,11.666c-2.083,0.417 -5,0.417 -8.75,0.417c-5.833,0 -10,-0.833 -12.5,-2.917c-2.917,-2.083 -4.167,-5.416 -4.167,-10l0,-32.083l-8.75,0l0,-10l8.75,0l0,-15.833l14.584,-0Z" style="fill:#0f0596;fill-rule:nonzero;"/><path d="M571.25,30c15.833,0 23.333,5 23.333,15.417l0,28.333c0,5.417 0.417,9.167 2.084,11.25l-15,0c-0.417,-1.667 -0.834,-3.333 -0.834,-5c-4.166,4.583 -10.416,6.667 -17.916,6.667c-5.417,-0 -10,-1.25 -13.334,-4.167c-3.333,-2.917 -5,-6.667 -5,-11.667c0,-5 1.667,-8.75 4.584,-11.25c3.333,-2.916 9.166,-4.583 17.5,-5.416c5.833,-0.417 9.583,-1.25 11.25,-2.5c1.666,-0.834 2.5,-2.5 2.5,-4.167c-0,-2.5 -0.834,-4.167 -2.084,-5.417c-1.666,-1.25 -3.75,-1.666 -7.5,-1.666c-2.916,-0 -5.416,0.833 -7.083,2.083c-1.667,1.25 -2.5,3.333 -2.917,6.25l-15,0c0.417,-5.833 2.917,-10.417 7.5,-13.333c4.167,-3.75 10.417,-5.417 17.917,-5.417Zm-12.5,40c0,4.583 2.917,6.667 9.167,6.667c7.916,-0 12.083,-4.167 12.083,-12.084l0,-5.833c-1.25,1.25 -4.167,2.083 -8.75,2.5c-4.167,0.417 -7.083,1.25 -9.167,2.5c-2.083,1.667 -3.333,3.333 -3.333,6.25Z" style="fill:#0f0596;fill-rule:nonzero;"/><path d="M658.333,10.833l0,74.167l-14.166,0l-0,-6.667c-3.334,5.417 -8.75,8.334 -16.25,8.334c-7.5,-0 -13.334,-2.5 -17.5,-7.917c-4.167,-5.417 -6.667,-12.5 -6.667,-20.833c0,-8.334 2.083,-15 6.667,-20c4.583,-5 10,-7.917 17.083,-7.917c3.333,0 6.25,0.833 9.167,2.083c2.916,1.25 5,3.334 6.666,5.834l0.417,-0l-0,-27.084l14.583,0Zm-40,47.5c0,5 1.25,9.167 3.334,12.5c2.5,3.334 5.416,5 9.583,5c4.167,0 7.5,-1.666 9.583,-4.583c2.084,-2.917 3.334,-7.5 3.334,-12.917c-0,-5.416 -1.25,-9.583 -3.334,-12.5c-2.083,-2.916 -5.416,-4.583 -9.583,-4.583c-4.167,0 -7.5,1.667 -9.583,4.583c-2.084,2.917 -3.334,7.084 -3.334,12.5Z" style="fill:#0f0596;fill-rule:nonzero;"/><path d="M689.583,15.417l0,16.25l10.834,-0l-0,10l-10.834,-0l0,26.666c0,2.5 0.417,4.167 1.25,5c0.834,0.834 2.5,1.25 5,1.25c1.667,0 3.334,0 4.584,-0.416l-0,11.666c-2.084,0.417 -5,0.417 -8.75,0.417c-5.834,0 -10,-0.833 -12.5,-2.917c-2.917,-2.083 -4.167,-5.416 -4.167,-10l0,-32.083l-8.75,0l0,-10l8.75,0l0,-15.833l14.583,-0Z" style="fill:#0f0596;fill-rule:nonzero;"/><path d="M791.667,10.833l-0,12.917l-40,47.5l40.833,0l0,13.75l-62.5,0l0,-12.917l40,-47.5l-36.667,0l0,-13.75l58.334,0Z" style="fill:#0f0596;fill-rule:nonzero;"/><path d="M815,31.25l0,30.417c0,4.166 0.833,7.5 2.083,9.583c1.25,2.083 3.75,3.333 7.5,3.333c4.167,0 7.084,-1.25 8.75,-3.75c1.667,-2.5 2.5,-6.25 2.5,-11.666l0,-27.917l14.584,0l-0,53.75l-14.167,0l0,-7.5l-0.417,0c-3.75,5.833 -9.166,8.75 -16.666,8.75c-7.084,0 -12.084,-1.667 -15,-5.417c-2.917,-3.75 -4.584,-9.166 -4.584,-16.666l0,-33.334l15.417,0.417Zm7.083,-20.417l0,12.084l-14.166,-0l-0,-12.084l14.166,0Zm21.25,0l0,12.084l-14.166,-0l-0,-12.084l14.166,0Z" style="fill:#0f0596;fill-rule:nonzero;"/><path d="M894.583,30c1.25,0 2.5,0 3.334,0.417l-0,13.75c-1.667,-0.417 -3.334,-0.417 -5.417,-0.417c-9.583,0 -14.583,5.833 -14.583,17.083l-0,24.167l-14.584,0l0,-53.75l14.167,0l0,10c1.25,-3.333 3.75,-6.25 7.083,-8.333c2.917,-2.084 6.25,-2.917 10,-2.917Z" style="fill:#0f0596;fill-rule:nonzero;"/><path d="M920.417,10.833l-0,12.084l-14.584,-0l0,-12.084l14.584,0Zm-0,20.417l-0,53.75l-14.584,0l0,-53.75l14.584,0Z" style="fill:#0f0596;fill-rule:nonzero;"/><path d="M957.083,30c7.5,0 13.334,1.667 17.917,5.417c4.583,3.75 7.083,8.75 7.5,15l-14.583,-0c-0.834,-6.25 -4.584,-9.167 -10.834,-9.167c-3.75,0 -7.083,1.667 -9.166,4.583c-2.084,3.334 -3.334,7.5 -3.334,12.5c0,5 1.25,9.167 3.334,12.084c2.083,2.916 5,4.583 9.166,4.583c6.667,0 10.834,-3.75 11.667,-10.833l14.167,-0c-0.834,7.083 -3.75,12.5 -8.334,16.25c-4.583,3.75 -10.416,5.833 -17.5,5.833c-7.916,0 -14.583,-2.5 -19.583,-7.5c-5,-5 -7.5,-11.667 -7.5,-20c0,-8.75 2.5,-15.833 7.5,-21.25c4.583,-5 11.25,-7.5 19.583,-7.5Z" style="fill:#0f0596;fill-rule:nonzero;"/><path d="M1006.25,10.833l0,27.917l0.417,0c1.666,-2.917 3.75,-5 6.666,-6.667c2.917,-1.666 5.834,-2.5 9.167,-2.5c6.667,0 11.667,1.667 15,5c2.917,3.334 4.583,8.75 4.583,16.25l0,33.75l-14.583,0l0,-30.416c0,-4.167 -0.833,-7.5 -2.083,-9.584c-1.25,-2.083 -3.75,-3.333 -7.5,-3.333c-4.167,0 -6.667,1.25 -8.75,3.75c-1.667,2.5 -2.917,6.25 -2.917,11.667l0,28.333l-14.583,0l-0,-74.167c-0.417,0 14.583,0 14.583,0Z" style="fill:#0f0596;fill-rule:nonzero;"/></g></g></g><g id="Finanzdepartement"><g><path d="M488.333,138.333l0,8.334l-38.75,-0l0,23.333l33.75,0l0,8.333l-33.75,0l0,33.75l-10,0l0,-73.75l48.75,0Z" style="fill:#0f0596;fill-rule:nonzero;"/><path d="M505.417,138.333l-0,10.834l-8.75,-0l-0,-10.834l8.75,0Zm-0,20.417l-0,53.333l-8.75,0l-0,-53.333l8.75,0Z" style="fill:#0f0596;fill-rule:nonzero;"/><path d="M544.583,157.5c12.084,0 18.334,6.25 18.334,19.167l-0,35.416l-8.75,0l-0,-36.666c-0,-2.917 -0.834,-5.417 -2.917,-7.5c-2.083,-2.084 -4.583,-2.917 -8.333,-2.917c-5,0 -8.75,1.667 -11.667,4.583c-2.917,2.917 -4.167,7.084 -4.167,12.084l0,30.416l-8.75,0l0,-53.333l8.334,0l-0,8.333c4.166,-6.666 10,-9.583 17.916,-9.583Z" style="fill:#0f0596;fill-rule:nonzero;"/><path d="M597.5,157.5c13.333,0 20,4.583 20,14.167l0,30.833c0,2.083 0.833,2.917 2.917,2.917c0.833,-0 1.666,-0 2.5,-0.417l-0,6.667c-1.667,0.833 -3.75,1.25 -6.25,1.25c-5,-0 -7.5,-2.917 -7.5,-8.334c-4.584,5.417 -10.834,8.334 -18.75,8.334c-5.417,-0 -10,-1.25 -12.917,-3.75c-3.333,-2.5 -4.583,-6.25 -4.583,-11.25c-0,-4.584 1.666,-8.334 4.583,-11.25c2.917,-2.917 10.417,-5 21.667,-6.25c3.75,-0.417 6.25,-1.25 7.916,-2.084c1.25,-0.833 2.084,-2.5 2.084,-4.583c-0,-5.833 -4.167,-8.75 -12.084,-8.75c-4.166,-0 -7.5,0.833 -9.583,2.5c-2.083,1.667 -3.333,4.167 -3.75,7.5l-8.75,-0c0.417,-11.667 7.917,-17.5 22.5,-17.5Zm-15.417,40c0,2.5 0.834,4.583 2.5,5.833c1.667,1.25 4.167,2.084 7.5,2.084c4.584,-0 8.75,-1.25 11.667,-3.334c2.917,-2.5 4.583,-5 4.583,-8.333l0,-9.167c-1.666,1.25 -3.75,1.667 -6.25,2.084l-9.166,1.25c-3.75,0.416 -6.667,1.666 -8.75,3.333c-1.25,1.25 -2.084,3.75 -2.084,6.25Z" style="fill:#0f0596;fill-rule:nonzero;"/><path d="M657.083,157.5c12.084,0 18.334,6.25 18.334,19.167l-0,35.416l-8.75,0l-0,-36.666c-0,-2.917 -0.834,-5.417 -2.917,-7.5c-2.083,-2.084 -4.583,-2.917 -8.333,-2.917c-5,0 -8.75,1.667 -11.667,4.583c-2.917,2.917 -4.167,7.084 -4.167,12.084l0,30.416l-8.75,0l0,-53.333l8.334,0l-0,8.333c4.583,-6.666 10.416,-9.583 17.916,-9.583Z" style="fill:#0f0596;fill-rule:nonzero;"/><path d="M726.667,158.75l-0,5.833l-32.5,39.584l34.166,-0l0,7.916l-45,0l0,-6.666l32.084,-38.75l-30,-0l-0,-7.917l41.25,0Z" style="fill:#0f0596;fill-rule:nonzero;"/><path d="M783.333,138.333l0,73.75l-8.75,0l0,-7.083c-1.25,2.917 -3.75,5 -6.666,6.25c-2.917,1.25 -6.667,2.083 -10.417,2.083c-7.5,0 -13.333,-2.5 -17.917,-7.916c-4.583,-5 -6.666,-12.084 -6.666,-20.417c-0,-8.333 2.083,-15 6.666,-20c4.167,-5 10.417,-7.5 17.917,-7.5c3.333,0 6.667,0.833 10,2.083c3.333,1.25 5.833,3.334 7.083,6.25l0,-27.5l8.75,0Zm-41.25,47.5c0,5.834 1.667,10.417 4.584,14.167c2.916,3.75 7.083,5.417 12.083,5.417c5,-0 9.167,-1.667 12.083,-5.417c2.917,-3.75 4.584,-8.75 4.584,-14.583c-0,-6.25 -1.667,-10.834 -4.584,-14.584c-2.916,-3.75 -7.083,-5.416 -12.5,-5.416c-5,-0 -9.166,1.666 -11.666,5.416c-3.334,3.334 -4.584,8.334 -4.584,15Z" style="fill:#0f0596;fill-rule:nonzero;"/><path d="M818.75,157.5c7.5,0 13.333,2.917 17.917,8.333c4.166,5.417 6.25,12.5 6.25,21.25l-0,0.834l-40,-0l-0,0.416c-0,5 1.666,9.167 4.583,12.5c2.917,3.334 7.083,4.584 12.083,4.584c7.5,-0 12.084,-3.334 13.75,-10.417l8.75,0c-1.25,5.833 -3.75,10.417 -7.916,13.75c-4.167,2.917 -9.167,4.583 -15,4.583c-8.334,0 -14.584,-2.916 -19.167,-8.333c-4.583,-5.417 -6.667,-12.083 -6.667,-20c0,-7.917 2.5,-14.583 7.084,-19.583c5,-5.417 11.25,-7.917 18.333,-7.917Zm15,22.5c-0.417,-4.167 -1.667,-7.917 -4.583,-10.833c-2.917,-2.917 -6.25,-4.167 -10.834,-4.167c-4.166,0 -7.5,1.25 -10.416,4.167c-2.917,2.916 -4.584,6.25 -5,10.833l30.833,0Z" style="fill:#0f0596;fill-rule:nonzero;"/><path d="M878.75,157.5c7.5,0 13.75,2.5 17.917,7.5c4.583,5 6.666,12.083 6.666,20.417c0,8.333 -2.083,15 -6.666,20c-4.584,5 -10.417,7.5 -17.917,7.5c-3.333,-0 -6.667,-0.834 -9.583,-2.084c-3.334,-1.25 -5.834,-3.333 -7.5,-6.25l-0,27.5l-8.75,0l-0,-73.333l8.75,0l-0,7.083c2.916,-5.833 8.75,-8.333 17.083,-8.333Zm-17.5,27.917c0,6.25 1.667,11.25 4.583,14.583c2.917,3.75 7.084,5.417 12.5,5.417c5,-0 9.167,-1.667 11.667,-5.417c2.917,-3.75 4.167,-8.75 4.167,-15.417c-0,-5.833 -1.667,-10.416 -4.584,-14.166c-2.916,-3.75 -7.083,-5.417 -12.083,-5.417c-5,0 -8.75,1.667 -11.667,5.417c-3.333,3.75 -4.583,8.75 -4.583,15Z" style="fill:#0f0596;fill-rule:nonzero;"/><path d="M935,157.5c13.333,0 20,4.583 20,14.167l0,30.833c0,2.083 0.833,2.917 2.917,2.917c0.833,-0 1.666,-0 2.5,-0.417l-0,6.667c-1.667,0.833 -3.75,1.25 -6.25,1.25c-5,-0 -7.5,-2.917 -7.5,-8.334c-4.584,5.417 -10.834,8.334 -18.75,8.334c-5.417,-0 -10,-1.25 -12.917,-3.75c-3.333,-2.5 -4.583,-6.25 -4.583,-11.25c-0,-4.584 1.666,-8.334 4.583,-11.25c2.917,-2.917 10.417,-5 21.667,-6.25c3.75,-0.417 6.25,-1.25 7.916,-2.084c1.25,-0.833 2.084,-2.5 2.084,-4.583c-0,-5.833 -4.167,-8.75 -12.084,-8.75c-4.166,-0 -7.5,0.833 -9.583,2.5c-2.083,1.667 -3.333,4.167 -3.75,7.5l-8.75,-0c0.417,-11.667 8.333,-17.5 22.5,-17.5Zm-15.417,40c0,2.5 0.834,4.583 2.5,5.833c1.667,1.25 4.167,2.084 7.5,2.084c4.584,-0 8.75,-1.25 11.667,-3.334c2.917,-2.5 4.583,-5 4.583,-8.333l0,-9.167c-1.666,1.25 -3.75,1.667 -6.25,2.084l-9.166,1.25c-3.75,0.416 -6.667,1.666 -8.75,3.333c-1.25,1.25 -2.084,3.75 -2.084,6.25Z" style="fill:#0f0596;fill-rule:nonzero;"/><path d="M997.083,157.5l0,9.167c-6.666,-0 -11.666,1.666 -14.583,5.416c-3.333,3.334 -4.583,8.75 -4.583,16.25l-0,23.75l-8.75,0l-0,-53.333l8.333,0l0,11.25c4.167,-8.333 10,-12.5 18.333,-12.5l1.25,0Z" style="fill:#0f0596;fill-rule:nonzero;"/><path d="M1019.58,142.5l0,15.833l10.834,0l-0,7.917l-10.834,0l0,33.333c0,1.667 0.417,2.917 0.834,3.334c0.416,0.833 2.083,0.833 4.583,0.833l5,0l0,7.917l-7.083,-0c-4.584,-0 -7.917,-0.834 -9.584,-2.084c-1.666,-1.666 -2.5,-4.583 -2.5,-8.75l0,-34.583l-9.166,-0l-0,-7.917l9.166,0l0,-15.833l8.75,0Z" style="fill:#0f0596;fill-rule:nonzero;"/><path d="M1060,157.5c7.5,0 13.333,2.917 17.917,8.333c4.166,5.417 6.25,12.5 6.25,21.25l-0,0.834l-40,-0l-0,0.416c-0,5 1.666,9.167 4.583,12.5c2.917,3.334 7.083,4.584 12.083,4.584c7.5,-0 12.084,-3.334 13.75,-10.417l8.75,0c-1.25,5.833 -3.75,10.417 -7.916,13.75c-4.167,2.917 -9.167,4.583 -15,4.583c-8.334,0 -14.584,-2.916 -19.167,-8.333c-4.583,-5.417 -6.667,-12.083 -6.667,-20c0,-7.917 2.5,-14.583 7.084,-19.583c5,-5.417 11.25,-7.917 18.333,-7.917Zm15,22.5c-0.417,-4.167 -1.667,-7.917 -4.583,-10.833c-2.917,-2.917 -6.25,-4.167 -10.834,-4.167c-4.166,0 -7.5,1.25 -10.416,4.167c-2.917,2.916 -4.584,6.25 -5,10.833l30.833,0Z" style="fill:#0f0596;fill-rule:nonzero;"/><path d="M1119.58,157.5c7.917,0 12.5,2.917 14.584,9.167c1.666,-2.917 4.166,-5 7.083,-6.667c2.917,-1.667 6.25,-2.5 9.583,-2.5c6.25,0 10.417,1.25 13.334,4.167c2.916,2.916 4.166,6.25 4.166,11.25l0,39.583l-8.75,0l0,-35.417c0,-3.75 -0.833,-6.666 -2.5,-8.75c-1.666,-2.083 -4.166,-2.916 -7.916,-2.916c-4.167,-0 -7.5,1.25 -10,3.75c-2.5,2.5 -3.75,5.833 -3.75,9.583l-0,33.75l-8.75,0l-0,-35.417c-0,-3.75 -0.834,-6.666 -2.5,-8.75c-1.667,-2.083 -4.167,-2.916 -7.5,-2.916c-2.5,-0 -5,0.416 -7.084,1.666c-2.083,1.25 -3.75,2.917 -5.416,5.417c-1.667,2.5 -2.084,4.583 -2.084,6.25l0,33.333l-8.75,0l0,-53.333l8.334,0l-0,7.917c4.583,-6.25 10.416,-9.167 17.916,-9.167Z" style="fill:#0f0596;fill-rule:nonzero;"/><path d="M1203.75,157.5c7.5,0 13.333,2.917 17.917,8.333c4.166,5.417 6.25,12.5 6.25,21.25l-0,0.834l-40,-0l-0,0.416c-0,5 1.666,9.167 4.583,12.5c2.917,3.334 7.083,4.584 12.083,4.584c7.5,-0 12.084,-3.334 13.75,-10.417l8.75,0c-1.25,5.833 -3.75,10.417 -7.916,13.75c-4.167,2.917 -9.167,4.583 -15,4.583c-8.334,0 -14.584,-2.916 -19.167,-8.333c-4.583,-5.417 -6.667,-12.083 -6.667,-20c0,-7.917 2.5,-14.583 7.084,-19.583c5,-5.417 11.25,-7.917 18.333,-7.917Zm15,22.5c-0.417,-4.167 -1.667,-7.917 -4.583,-10.833c-2.917,-2.917 -6.25,-4.167 -10.834,-4.167c-4.166,0 -7.5,1.25 -10.416,4.167c-2.917,2.916 -4.584,6.25 -5,10.833l30.833,0Z" style="fill:#0f0596;fill-rule:nonzero;"/><path d="M1263.75,157.5c12.083,0 18.333,6.25 18.333,19.167l0,35.416l-8.75,0l0,-36.666c0,-2.917 -0.833,-5.417 -2.916,-7.5c-2.084,-2.084 -4.584,-2.917 -8.334,-2.917c-5,0 -8.75,1.667 -11.666,4.583c-2.917,2.917 -4.167,7.084 -4.167,12.084l-0,30.416l-8.75,0l-0,-53.333l8.333,0l0,8.333c4.167,-6.666 10,-9.583 17.917,-9.583Z" style="fill:#0f0596;fill-rule:nonzero;"/><path d="M1306.25,142.5l0,15.833l10.833,0l0,7.917l-10.833,0l0,33.333c0,1.667 0.417,2.917 0.833,3.334c0.417,0.833 2.084,0.833 4.584,0.833l5,0l-0,7.917l-7.084,-0c-4.583,-0 -7.916,-0.834 -9.583,-2.084c-1.667,-1.666 -2.5,-4.583 -2.5,-8.75l0,-34.583l-9.167,-0l0,-7.917l9.167,0l0,-15.833l8.75,0Z" style="fill:#0f0596;fill-rule:nonzero;"/></g></g></g></svg>